<svg width="548" height="533" viewBox="0 0 548 533" fill="none" xmlns="http://www.w3.org/2000/svg">
<g clip-path="url(#clip0_483_862)">
<path d="M351.725 -2.25265L309.751 -2.25266L309.751 -9.87527L294.28 -9.87527L267.756 -36.7807L267.587 -36.9504L150.122 -36.9504L150.122 -44.573L133.745 -44.573L133.745 -28.1823L150.122 -28.1823L150.122 -35.8049L253.374 -35.8049L286.445 -2.25266L195.808 -2.25266L195.808 -1.10715L293.361 -1.10715L293.361 6.51546L309.751 6.51546L309.751 -1.10715L351.244 -1.10715L391.486 39.7424L416.744 39.7424L416.744 43.2638L424.932 43.2638L424.932 39.7283L459.029 39.7283L459.029 47.3509L475.419 47.3509L475.419 30.9601L459.029 30.9601L459.029 38.5828L424.932 38.5828L424.932 35.0755L416.744 35.0755L416.744 38.5969L391.967 38.5969L351.725 -2.25265ZM148.397 -29.9218L135.485 -29.9218L135.485 -42.8335L148.397 -42.8335L148.397 -29.9218ZM293.375 -2.25266L288.072 -2.25266L255 -35.8049L267.134 -35.8049L293.389 -9.16817L293.382 -2.24558L293.375 -2.25266Z" fill="white" fill-opacity="0.2"/>
<path d="M9.52804 -17.0735L9.52802 -12.746L13.8555 -12.746L13.8485 -14.337L55.3627 -14.3299L91.5383 22.3831L113.225 22.376L113.225 25.9115L121.421 25.9045L121.421 17.7161L113.225 17.7091L113.232 21.2375L92.0191 21.2375L55.8365 -15.4825L13.8555 -15.4754L13.8555 -17.0735L9.52804 -17.0735Z" fill="white" fill-opacity="0.2"/>
<path d="M195.511 71.0179L179.941 71.0179L179.941 87.4086L196.317 87.4086L196.317 71.824L206.238 61.9033L260.537 61.9669L278.363 43.8721L326.687 43.8438L326.687 45.9792L332.089 45.9792L332.089 40.5769L326.687 40.5769L326.687 42.7124L269.729 42.7478L269.489 42.7478L251.67 60.8355L205.764 60.7648L195.497 71.032L195.511 71.0179ZM194.592 85.6691L181.68 85.6691L181.68 72.7574L194.592 72.7574L194.592 85.6691ZM269.977 43.8721L276.765 43.8721L260.07 60.8214L253.282 60.8214L269.977 43.8721Z" fill="white" fill-opacity="0.2"/>
<path d="M472.358 64.3003L522.704 64.3003L522.704 71.9229L539.08 71.9229L539.08 55.5322L522.69 55.5322L522.69 63.1548L472.358 63.1548L472.358 64.3003ZM524.429 57.2717L537.348 57.2646L537.348 70.1905L524.436 70.1905L524.436 57.2787L524.429 57.2717Z" fill="white" fill-opacity="0.2"/>
<path d="M533.599 66.4337L533.6 61.0237L528.19 61.0227L528.189 66.4327L533.599 66.4337Z" fill="white" fill-opacity="0.2"/>
<path d="M243.821 14.6897L243.821 31.0804L260.212 31.0804L260.212 23.4578L339.266 23.4578L375.562 60.291L375.562 63.1194L291.925 63.1194L251.684 103.969L172.629 103.969L172.629 96.3464L156.239 96.3464L156.239 112.737L172.629 112.737L172.629 105.114L269.715 105.114L309.956 64.2649L375.562 64.2932L375.562 67.7863L383.75 67.7863L383.75 64.2932L462.444 64.3003L462.444 63.1548L383.75 63.1477L383.75 59.598L376.481 59.598L339.747 22.3123L260.212 22.3123L260.212 14.6897L243.821 14.6897ZM269.227 103.962L253.289 103.962L292.406 64.2649L308.344 64.2649L269.227 103.962Z" fill="white" fill-opacity="0.2"/>
<path d="M469.945 66.4378L469.945 61.0278L464.535 61.0278L464.535 66.4378L469.945 66.4378Z" fill="white" fill-opacity="0.2"/>
<path d="M181.023 185.689L135.124 185.753L117.305 167.665L62.4832 167.644L49.522 154.499L71.7676 154.499L71.7676 156.634L77.1699 156.634L77.1698 151.232L71.7676 151.232L71.7676 153.367L48.3906 153.367L16.0617 120.586L16.0617 113.67L19.6962 113.67L69.9432 113.67L110.185 154.52L165.254 154.52L165.254 158.041L173.442 158.041L173.442 149.853L165.254 149.853L165.254 153.374L135.853 153.374L95.6112 112.525L70.4241 112.525L19.6962 112.525L16.0617 112.525L16.0617 104.902L-0.314899 104.902L-0.3149 121.279L15.1566 121.279L62.0166 168.789L106.147 168.811L123.973 186.906L180.556 186.835L190.477 196.755L190.477 212.34L206.853 212.34L206.853 195.949L191.283 195.949L181.016 185.682L181.023 185.689ZM95.1233 113.663L134.24 153.36L110.666 153.36L71.5484 113.663L95.1233 113.663ZM124.44 185.76L107.745 168.811L116.824 168.811L133.505 185.746L124.44 185.76ZM192.202 197.689L205.114 197.689L205.114 210.601L192.202 210.601L192.202 197.689Z" fill="white" fill-opacity="0.2"/>
<path d="M-7.64052 121.279L-7.64052 104.902L-24.0312 104.902L-24.0313 112.525L-49.3457 112.525L-89.5871 71.6753L-133.923 71.6753L-133.923 68.1539L-142.111 68.1539L-142.111 76.3423L-134.785 76.3422L-100.413 111.224L-100.413 115.792L-95.0106 115.792L-95.0106 110.389L-99.6351 110.389L-133.923 75.5927L-133.923 72.8208L-100.752 72.8279L-60.5109 113.677L-24.0383 113.677L-24.0383 121.3L-7.6476 121.3L-7.64052 121.279ZM-22.2918 106.628L-9.38001 106.628L-9.37999 119.539L-22.2918 119.539L-22.2918 106.628ZM-60.0159 112.518L-99.1331 72.8209L-90.0538 72.8208L-50.9367 112.518L-60.0159 112.518Z" fill="white" fill-opacity="0.2"/>
<path d="M193.097 0.500656L193.096 -3.82935L188.766 -3.82859L188.767 0.501412L193.097 0.500656Z" fill="white" fill-opacity="0.2"/>
<path d="M229.213 25.61L229.214 20.2L223.804 20.199L223.803 25.609L229.213 25.61Z" fill="white" fill-opacity="0.2"/>
<path d="M186.029 -2.25972L125.515 -2.25972L125.515 -9.88233L109.124 -9.88233L109.124 6.5084L124.61 6.50842L163.847 45.9579L163.84 71.0248L156.231 71.0248L156.231 78.6474L77.177 78.6474L57.6042 58.7777L57.6042 51.339L49.4159 51.339L49.4159 54.8604L-33.7398 54.8604L-51.9902 36.3412L-51.9902 31.7451L-57.3925 31.7451L-57.3925 37.1473L-52.7963 37.1473L-34.2136 56.0129L49.423 56.0129L49.423 59.5343L56.7486 59.5343L76.7102 79.7929L98.5033 79.7929L123.457 105.114L144.642 105.114L144.635 106.705L148.962 106.705L148.962 102.378L144.635 102.378L144.635 103.962L123.931 103.962L100.108 79.7859L156.253 79.7859L156.253 87.4085L172.643 87.4085L172.643 71.0178L165.021 71.0178L165.028 45.4841L125.543 5.78716L125.543 -1.1142L132.833 -1.12128L175.048 41.3193L209.024 41.3405L219.291 31.0733L234.862 31.0733L234.862 14.6826L218.478 14.6755L218.478 22.3264L193.121 22.3405L193.121 20.7566L188.794 20.7566L188.794 25.0841L193.121 25.0841L193.121 23.486L218.478 23.4719L218.478 30.2601L208.557 40.1808L189.275 40.1738L148.192 -1.12127L186.064 -1.12127L186.064 -2.26678L186.029 -2.25972ZM220.182 16.4221L233.094 16.4221L233.094 29.3338L220.182 29.3338L220.182 16.4221ZM187.627 40.1808L175.5 40.1738L134.424 -1.1142L146.544 -1.1142L187.627 40.1808Z" fill="white" fill-opacity="0.2"/>
<path d="M-72.3903 63.7841L-72.3903 68.0974L-68.1335 68.0974L-49.7982 86.7014L-11.4872 86.7014L-11.4872 85.5559L-49.3174 85.5559L-66.9738 67.6308L-66.9738 62.681L-71.8529 62.681L-89.5588 44.7063L-141.729 44.7063L-122.75 25.4447L-80.0836 25.4448L-80.0836 28.9661L-71.8953 28.9661L-71.8953 20.7779L-80.0836 20.7778L-80.0836 24.2993L-133.159 24.2992L-153.269 44.7063L-173.21 44.7064L-173.21 42.0193L-136.758 5.01643L-62.8938 5.01644L-62.8938 12.639L-47.3234 12.639L-27.7648 32.4946L22.5388 32.4946L22.5388 34.6301L27.9411 34.6301L27.9411 29.2278L22.5388 29.2278L22.5388 31.3632L-27.284 31.3632L-46.5172 11.8471L-46.5172 5.03057L-11.6286 5.03059L-11.6286 8.55197L-3.4403 8.55197L-3.44032 5.03057L40.4145 5.03058L80.6559 45.8801L109.11 45.8801L109.11 53.5028L125.486 53.5027L125.486 37.112L109.11 37.112L109.11 44.7346L91.4322 44.7346L51.1908 3.88507L-3.44032 3.88506L-3.44032 1.09906L7.80978 -10.2076L7.00366 -11.0137L-4.31712 0.363686L-11.6286 0.363664L-11.6286 3.88509L-46.5172 3.88506L-46.5172 -3.73753L-62.908 -3.73755L-62.908 3.88506L-137.239 3.88504L-173.994 41.192L-181.405 41.192L-181.405 49.3803L-173.217 49.3803L-173.217 45.8589L-90.0609 45.8589L-72.4044 63.7841L-72.3903 63.7841ZM110.871 38.8444L123.782 38.8444L123.782 51.7562L110.871 51.7562L110.871 38.8444ZM50.7382 5.0306L89.8553 44.7276L81.1579 44.7276L42.0408 5.03058L50.7382 5.0306ZM-61.1544 -1.99807L-48.2426 -1.99807L-48.2426 10.9137L-61.1544 10.9137L-61.1544 -1.99807ZM-151.643 44.7205L-132.664 25.4589L-124.348 25.4589L-143.327 44.7205L-151.643 44.7205Z" fill="white" fill-opacity="0.2"/>
<path d="M46.1208 94.3311L46.1137 77.9475L29.7371 77.9475L29.7301 85.563L3.62369 85.563L3.62367 86.7085L29.7301 86.7085L29.7301 94.3311L46.1208 94.3311Z" fill="white" fill-opacity="0.2"/>
<path d="M10.5656 139.484L10.5656 134.074L5.15558 134.074L5.15558 139.484L10.5656 139.484Z" fill="white" fill-opacity="0.2"/>
<path d="M-78.8037 137.359L-24.0171 137.359L-24.0171 144.981L-7.62638 144.981L-7.62638 128.59L-24.0171 128.59L-24.0171 136.213L-103.072 136.213L-117.666 121.406L-117.666 117.899L-121.117 117.899L-143.313 95.3777L-173.195 95.3777L-173.195 91.8563L-181.384 91.8563L-181.384 100.045L-173.195 100.045L-173.195 96.5232L-143.794 96.5232L-121.987 118.656L-121.987 119.504L-185.485 119.504L-201.296 103.453L-201.296 87.7975L-217.687 87.7974L-217.687 95.3776L-262.404 95.3776L-240.385 72.8351L-197.032 72.8139L-197.032 71.6683L-251.317 71.6896L-251.557 71.6896L-274.694 95.3776L-316.922 95.3777L-357.998 53.7078L-357.998 38.1232L-374.374 38.1232L-374.374 54.514L-358.804 54.5139L-317.141 96.5302L-297.922 96.5302L-274.34 120.65L-213.585 120.65L-213.585 124.171L-205.397 124.171L-205.397 115.983L-213.585 115.983L-213.585 119.504L-263.168 119.504L-285.632 96.5302L-217.68 96.5302L-217.68 104.181L-202.18 104.181L-185.959 120.643L-121.98 120.643L-121.98 122.241L-118.458 122.241L-103.545 137.38L-89.9407 137.38L-58.7148 168.832L-22.016 168.832L-22.016 167.686L-48.7022 167.686L-78.7896 137.373L-78.8037 137.359ZM-359.716 52.7674L-372.628 52.7674L-372.628 39.8557L-359.716 39.8557L-359.716 52.7674ZM-264.78 119.476L-273.845 119.49L-296.31 96.5161L-287.231 96.5161L-264.78 119.476ZM-273.074 95.3706L-251.055 72.828L-241.969 72.8209L-263.988 95.3635L-273.067 95.3635L-273.074 95.3706ZM-203.035 102.435L-215.947 102.435L-215.947 89.5228L-203.035 89.5228L-203.035 102.435ZM-58.2552 167.665L-88.3426 137.352L-80.423 137.352L-50.3356 167.665L-58.2552 167.665Z" fill="white" fill-opacity="0.2"/>
<path d="M97.7891 185.753L57.2294 185.753L16.0617 144.175L16.0617 128.59L-0.329035 128.59L-0.321979 144.974L15.2344 144.974L37.6992 167.665L-9.93156 167.665L-9.93156 168.811L38.8305 168.811L56.5789 186.729L56.7486 186.898L97.7891 186.898L97.7891 188.497L102.117 188.497L102.117 184.169L97.7891 184.169L97.7891 185.753ZM1.41044 143.242L1.41044 130.33L14.3222 130.33L14.3222 143.242L1.41044 143.242Z" fill="white" fill-opacity="0.2"/>
<path d="M459.304 87.9743L377.252 87.9602L337.01 128.81L310.013 128.81L310.013 121.88L340.199 91.2412L344.753 91.2412L344.753 85.8389L339.351 85.8389L339.351 90.4775L309.094 121.187L293.636 121.187L293.636 128.81L254.194 128.81L254.194 129.955L293.636 129.955L293.636 136.871L267.382 163.507L207.108 163.507L207.108 155.885L190.717 155.885L190.717 172.276L207.108 172.276L207.108 164.653L267.855 164.646L294.542 137.564L310.013 137.564L310.013 129.941L351.987 129.941L392.228 89.0916L459.304 89.1057L459.304 96.7283L475.695 96.7283L475.695 80.3376L459.304 80.3376L459.304 87.9602L459.304 87.9743ZM192.464 170.543L192.464 157.631L205.375 157.631L205.375 170.543L192.464 170.543ZM351.506 128.81L338.608 128.81L377.726 89.1128L390.623 89.1128L351.506 128.81ZM461.044 82.0912L473.956 82.0912L473.956 95.003L461.044 95.003L461.044 82.0912Z" fill="white" fill-opacity="0.2"/>
<path d="M201.348 166.514L201.348 161.104L195.939 161.103L195.938 166.513L201.348 166.514Z" fill="white" fill-opacity="0.2"/>
<path d="M251.202 131.296L251.202 126.966L246.872 126.966L246.872 131.296L251.202 131.296Z" fill="white" fill-opacity="0.2"/>
<path d="M244.132 128.562L206.917 128.555L206.917 120.933L190.533 120.94L190.533 137.316L206.917 137.323L206.917 129.701L244.132 129.708L244.132 128.562Z" fill="white" fill-opacity="0.2"/>
<path d="M-112.936 183.794L-102.004 194.726L-102.28 232.507L-102.28 232.747L-19.2159 315.811L-24.604 321.199L-13.0216 332.782L-1.4392 321.199L-13.0216 309.617L-18.4098 315.005L-91.4256 241.989L-91.0791 194.875L-26.994 258.96L-26.1879 258.154L-95.1662 189.176L-89.778 183.787L-101.36 172.205L-112.95 183.794L-112.936 183.794ZM-13.0145 312.071L-3.87871 321.207L-13.0146 330.342L-22.1504 321.207L-13.0145 312.071ZM-92.2105 193.743L-92.557 240.858L-101.134 232.281L-100.865 194.889L-95.9723 189.996L-92.2246 193.743L-92.2105 193.743Z" fill="white" fill-opacity="0.2"/>
<path d="M64.4137 223.569L52.8242 211.98L41.2418 223.562L46.637 228.957L28.5775 247.017L28.429 302.998L23.55 307.877L18.3952 302.723L18.5507 242.873L-5.46264 218.831L-19.9866 218.831L-30.9963 207.822L-42.5787 219.404L-30.9963 230.987L-25.5869 225.577L-7.65468 243.51L-8.77187 244.627L-5.71011 247.689L-2.64837 244.627L-5.71013 241.565L-6.83441 242.689L-24.7666 224.757L-19.9725 219.963L-5.94347 219.963L7.69661 233.603L7.534 291.861L-19.2441 265.083L-20.0573 265.897L22.7297 308.684L17.3416 314.072L28.924 325.654L40.5064 314.072L29.5604 303.126L29.7089 247.483L47.4289 229.763L52.8171 235.152L58.2052 229.763L114.109 285.667L113.904 313.563L108.643 318.823L114.434 324.615L120.226 318.823L115.042 313.64L115.255 285.201L99.8468 269.793L100.108 234.246L85.1319 219.27L86.2562 218.146L83.1944 215.084L80.1326 218.146L83.1944 221.207L84.3187 220.083L98.9558 234.72L98.7013 268.661L59.0043 228.964L64.3924 223.576L64.4137 223.569ZM-30.9892 228.547L-40.125 219.411L-30.9892 210.276L-21.8534 219.411L-30.9892 228.547ZM8.6795 293.021L8.83506 234.77L17.4123 243.347L17.2567 301.598L8.68658 293.028L8.6795 293.021Z" fill="white" fill-opacity="0.2"/>
</g>
<defs>
<clipPath id="clip0_483_862">
<rect width="774.35" height="736.42" fill="white" transform="translate(547.276 63.7275) rotate(135)"/>
</clipPath>
</defs>
</svg>
