<svg width="486" height="418" viewBox="0 0 486 418" fill="none" xmlns="http://www.w3.org/2000/svg">
<g clip-path="url(#clip0_338_2383)">
<path d="M522.191 413.382L522.192 371.408L529.814 371.408L529.814 355.937L556.72 329.413L556.889 329.243L556.889 211.779L564.512 211.779L564.512 195.402L548.121 195.402L548.121 211.779L555.744 211.779L555.744 315.031L522.191 348.102V257.465H521.046L521.046 355.017L513.423 355.017V371.408L521.046 371.408L521.046 412.901L480.196 453.143L480.196 478.401L476.675 478.401L476.675 486.589H480.211L480.211 520.685L472.588 520.685L472.588 537.076L488.979 537.076L488.979 520.686L481.356 520.685L481.356 486.589L484.863 486.589L484.863 478.4L481.342 478.401L481.342 453.623L522.191 413.382ZM549.861 210.053L549.861 197.142H562.772V210.054L549.861 210.053ZM522.191 355.032V349.728L555.744 316.657L555.744 328.791L529.107 355.046L522.184 355.039L522.191 355.032Z" fill="white" fill-opacity="0.2"/>
<path d="M537.012 71.1849L532.685 71.1849L532.685 75.5124L534.276 75.5053L534.269 117.02L497.556 153.195L497.563 174.882H494.027L494.034 183.077H502.223L502.23 174.882L498.701 174.889V153.676L535.421 117.493L535.414 75.5124H537.012V71.1849Z" fill="white" fill-opacity="0.2"/>
<path d="M448.921 257.168L448.921 241.598H432.53V257.974L448.115 257.974L458.036 267.895L457.972 322.194L476.067 340.02L476.095 388.344L473.96 388.344L473.96 393.746H479.362V388.344L477.227 388.344L477.191 331.386L477.191 331.146L459.103 313.327L459.174 267.421L448.907 257.154L448.921 257.168ZM434.27 256.249V243.337H447.182L447.182 256.249L434.27 256.249ZM476.067 331.634V338.422L459.118 321.727L459.117 314.939L476.067 331.634Z" fill="white" fill-opacity="0.2"/>
<path d="M505.249 305.478L488.858 305.478L488.858 321.868L496.481 321.868V400.923L459.648 437.219H456.819L456.819 353.582L415.97 313.341V234.286L423.592 234.286V217.895H407.202V234.286L414.824 234.286V331.372L455.674 371.613L455.646 437.219L452.153 437.219L452.152 445.407L455.646 445.407L455.646 524.094H456.791L456.798 445.4L460.348 445.4L460.348 438.131L497.634 401.397L497.634 321.861L505.256 321.861V305.471L505.249 305.478ZM415.977 330.884L415.977 314.946L455.674 354.063L455.674 370.001L415.977 330.884Z" fill="white" fill-opacity="0.2"/>
<path d="M334.249 242.679L334.186 196.781L352.274 178.962L352.295 124.14L365.44 111.179V133.424L363.304 133.424V138.827L368.707 138.827L368.707 133.424H366.571V110.047L399.353 77.7184H406.268L406.268 81.3529L406.268 131.6L365.419 171.841V226.911L361.897 226.911V235.099H370.086V226.911H366.564L366.564 197.509L407.414 157.268L407.421 132.088L407.421 81.36L407.421 77.7255L415.043 77.7255V61.3489L398.667 61.3489V76.8204L351.156 123.68L351.135 167.811L333.04 185.637L333.111 242.22L323.19 252.14L307.606 252.14L307.606 268.517L323.996 268.517L323.996 252.947L334.264 242.679L334.249 242.679ZM406.275 156.78L366.578 195.897L366.578 172.322L406.275 133.205V156.78ZM334.179 186.097L351.128 169.402V178.481L334.193 195.162L334.179 186.097ZM322.25 253.859L322.25 266.77L309.338 266.77V253.859H322.25Z" fill="white" fill-opacity="0.2"/>
<path d="M398.66 54.0162L415.036 54.0162V37.6255H407.414V12.3111L448.263 -27.9304L448.263 -72.266H451.785V-80.4543H443.596L443.596 -73.1286L408.715 -38.7562L404.147 -38.7562L404.147 -33.3539H409.549V-37.9784L444.346 -72.266L447.118 -72.266L447.111 -39.0956L406.261 1.14584V37.6184L398.639 37.6184L398.639 54.0092L398.66 54.0162ZM413.311 39.365L413.311 52.2767L400.399 52.2768V39.365H413.311ZM407.421 1.64081L447.118 -37.4763L447.118 -28.3971L407.421 10.7201V1.64081Z" fill="white" fill-opacity="0.2"/>
<path d="M522.198 247.686V187.172L529.821 187.172V170.781H513.43V186.266L473.981 225.504L448.914 225.497V217.888L441.291 217.888L441.291 138.834L461.161 119.261H468.6V111.073L465.078 111.073V27.9169L483.597 9.66651H488.194V4.2642L482.791 4.26422V8.86042L463.926 27.4432L463.926 111.08H460.404V118.405L440.146 138.367V160.16L414.824 185.114V206.299L413.233 206.292V210.619H417.561V206.292H415.977V185.588L440.153 161.765V217.909L432.53 217.909V234.3H448.921V226.678L474.455 226.685L514.152 187.2L521.053 187.2L521.06 194.49L478.619 236.704L478.598 270.681L488.865 280.948L488.865 296.519L505.256 296.519L505.256 280.142H497.605L497.591 254.785L499.175 254.785L499.175 250.458H494.848V254.785L496.446 254.785L496.46 280.142L489.671 280.142L479.751 270.221L479.758 250.938L521.053 209.856V247.728H522.198V247.686ZM503.517 281.839L503.517 294.751L490.605 294.751V281.839H503.517ZM479.758 249.284L479.765 237.157L521.053 196.081V208.201L479.758 249.284Z" fill="white" fill-opacity="0.2"/>
<path d="M436.488 60.3732V54.9633H431.078V60.3732H436.488Z" fill="white" fill-opacity="0.2"/>
<path d="M456.155 -10.7334L451.841 -10.7335L451.841 -6.47667L433.237 11.8586V50.1696H434.383V12.3394L452.308 -5.31702H457.258L457.258 -10.196L475.233 -27.902L475.233 -80.0723L494.494 -61.0936L494.494 -18.4268L490.973 -18.4268L490.973 -10.2385L499.161 -10.2385L499.161 -18.4268L495.64 -18.4268V-71.5022L475.233 -91.6123L475.233 -111.553L477.92 -111.553L514.922 -75.1014V-1.23701L507.3 -1.237L507.3 14.3335L487.444 33.892V84.1956H485.309L485.309 89.5979L490.711 89.5979V84.1956H488.576V34.3729L508.092 15.1396L514.908 15.1396L514.908 50.0282L511.387 50.0282L511.387 58.2165L514.908 58.2165V102.071L474.059 142.313V170.767H466.436L466.436 187.143H482.827L482.827 170.767H475.204V153.089L516.054 112.848V58.2165H518.84L530.146 69.4666L530.953 68.6605L519.575 57.3397L519.575 50.0282L516.054 50.0282L516.054 15.1396L523.676 15.1396L523.676 -1.25117L516.054 -1.25114L516.054 -75.5822L478.747 -112.338L478.747 -119.748L470.559 -119.748L470.559 -111.56L474.08 -111.56L474.08 -28.404L456.155 -10.7476L456.155 -10.7334ZM481.094 172.527L481.094 185.439H468.183V172.527L481.094 172.527ZM514.908 112.395L475.211 151.512V142.815L514.908 103.698V112.395ZM521.937 0.502467V13.4142H509.025V0.502467H521.937ZM475.218 -89.986L494.48 -71.0072V-62.6917L475.218 -81.6704L475.218 -89.986Z" fill="white" fill-opacity="0.2"/>
<path d="M425.608 107.778L441.991 107.771L441.991 91.394L434.376 91.3869V65.2805L433.23 65.2805V91.3869L425.608 91.3869V107.778Z" fill="white" fill-opacity="0.2"/>
<path d="M385.865 72.2344V66.8245H380.454V72.2344H385.865Z" fill="white" fill-opacity="0.2"/>
<path d="M382.58 -17.1469L382.58 37.6397L374.957 37.6397L374.957 54.0305H391.348V37.6397H383.726L383.726 -41.4148L398.532 -56.0095L402.04 -56.0095V-59.4602L424.561 -81.6563V-111.539L428.082 -111.539L428.082 -119.727L419.894 -119.727L419.894 -111.539L423.415 -111.539V-82.1371L401.283 -60.3299L400.435 -60.3299L400.434 -123.828L416.486 -139.639L432.141 -139.639L432.141 -156.03L424.561 -156.03L424.561 -200.747L447.104 -178.728L447.125 -135.375H448.27L448.249 -189.66L448.249 -189.9L424.561 -213.037L424.561 -255.265L466.231 -296.341L481.815 -296.341L481.815 -312.718L465.425 -312.718L465.425 -297.147L423.408 -255.484L423.408 -236.265L399.289 -212.683L399.289 -151.929L395.768 -151.929L395.768 -143.74L403.956 -143.74L403.956 -151.929L400.434 -151.929V-201.511L423.408 -223.976L423.408 -156.023L415.757 -156.023L415.758 -140.523L399.296 -124.302L399.296 -60.3228H397.698V-56.8014L382.559 -41.8886L382.559 -28.2838L351.107 2.942L351.107 39.6408H352.252V12.9546L382.566 -17.1328L382.58 -17.1469ZM467.178 -298.066L467.178 -310.978L480.09 -310.978L480.09 -298.066L467.178 -298.066ZM400.47 -203.13L400.456 -212.195L423.43 -234.66L423.43 -225.581L400.47 -203.13ZM424.575 -211.424L447.118 -189.405L447.125 -180.319L424.582 -202.338L424.582 -211.417L424.575 -211.424ZM417.511 -141.386V-154.297H430.423V-141.386H417.511ZM352.281 3.39453L382.594 -26.6928L382.594 -18.7733L352.281 11.3141V3.39453Z" fill="white" fill-opacity="0.2"/>
<path d="M354.404 48.535L354.405 43.125L348.995 43.1241L348.994 48.5341L354.404 48.535Z" fill="white" fill-opacity="0.2"/>
<path d="M334.186 159.446V118.886L375.764 77.7186L391.348 77.7186V61.3279L374.965 61.335V76.8913L352.274 99.3561V51.7254H351.128V100.487L333.21 118.236L333.04 118.406L333.04 159.446H331.442V163.774H335.77V159.446H334.186ZM376.697 63.0674H389.609L389.609 75.9791L376.697 75.9792V63.0674Z" fill="white" fill-opacity="0.2"/>
<path d="M432.219 520.707L432.233 438.654L391.384 398.413L391.384 371.415L398.313 371.415L428.952 401.602L428.952 406.156H434.355V400.753L429.716 400.753L399.006 370.496V355.039L391.384 355.039L391.384 315.596L390.238 315.596L390.238 355.039H383.323L356.686 328.784V268.51L364.309 268.51V252.119L347.918 252.119L347.918 268.51L355.54 268.51L355.547 329.258L382.63 355.944V371.415L390.252 371.415V413.389L431.102 453.631L431.088 520.707L423.465 520.707L423.465 537.098L439.856 537.098L439.856 520.707L432.233 520.707L432.219 520.707ZM349.65 253.866L362.562 253.866V266.778H349.65L349.65 253.866ZM391.384 412.908L391.384 400.011L431.081 439.128V452.026L391.384 412.908ZM438.102 522.432V535.344H425.19L425.19 522.432L438.102 522.432Z" fill="white" fill-opacity="0.2"/>
<path d="M358.781 263L358.782 257.59L353.372 257.589L353.371 262.999L358.781 263Z" fill="white" fill-opacity="0.2"/>
<path d="M392.973 312.861V308.531H388.643V312.861H392.973Z" fill="white" fill-opacity="0.2"/>
<path d="M391.377 305.789L391.384 268.574L399.006 268.574L398.999 252.19H382.623L382.616 268.574L390.238 268.574L390.231 305.789H391.377Z" fill="white" fill-opacity="0.2"/>
<path d="M582.508 257.508H598.898L598.891 241.124L591.269 241.124V194.511L598.792 194.511V178.121H591.269L591.269 161.574L591.177 161.482L591.177 102.991H594.684L594.684 94.8023L591.163 94.8023L591.163 11.6465L609.088 -6.00995L613.401 -6.00994L613.401 -10.2667L632.005 -28.602V-66.913H630.86V-29.0828L612.934 -11.4264H607.985L607.985 -6.54735L590.01 11.1586L590.01 63.329L570.748 44.3502L570.748 1.68339L574.27 1.68338L574.27 -6.50492L566.082 -6.50491L566.082 1.68338L569.603 1.68339V54.7588L590.01 74.8689L590.01 94.8093L587.323 94.8094L550.32 58.358V-15.5064L557.943 -15.5064L557.943 -31.0769L577.798 -50.6355L577.798 -100.939L579.934 -100.939V-106.341L574.532 -106.341L574.532 -100.939L576.667 -100.939L576.667 -51.1163L557.151 -31.883L550.334 -31.883L550.341 -66.7787L553.863 -66.7787V-74.967L550.341 -74.967L550.341 -118.822L591.191 -159.063L591.191 -187.517L598.814 -187.517L598.814 -203.894L582.437 -203.894L582.437 -187.517L590.06 -187.517V-169.84L549.21 -129.598V-119.303L549.21 -74.967L546.424 -74.967L535.11 -86.21L534.304 -85.4039L545.682 -74.0831L545.682 -66.7716H549.203L549.203 -31.883L541.58 -31.883V-15.4923L549.203 -15.4922V58.8388L586.51 95.5942L586.51 103.005H590.045V160.379L556.804 127.633L556.748 96.7327H558.332L558.332 92.4052L554.81 92.4052L539.254 76.9337L538.448 77.7398L554.011 93.2183L554.011 96.7256L555.609 96.7256L555.751 170.901L548.142 170.901L548.142 187.292L564.533 187.292V170.901L556.896 170.901L556.84 141.089L590.053 173.807V178.135L582.43 178.135L582.437 194.518L590.144 194.518L590.144 241.131L582.522 241.131V257.522L582.508 257.508ZM570.756 54.2709L570.756 45.9553L590.017 64.9341L590.017 73.2496L570.756 54.2709ZM584.148 -189.271L584.148 -202.183L597.06 -202.183L597.06 -189.271L584.148 -189.271ZM550.334 -129.138L590.031 -168.256L590.031 -159.558L550.334 -120.441L550.334 -129.138ZM543.306 -17.2459V-30.1576H556.217V-17.2459H543.306ZM556.826 139.463L556.811 129.224L590.045 161.963L590.045 172.188L556.826 139.463Z" fill="white" fill-opacity="0.2"/>
</g>
<defs>
<clipPath id="clip0_338_2383">
<rect width="675.6" height="645.18" fill="white" transform="translate(933.933 131.211) rotate(135)"/>
</clipPath>
</defs>
</svg>
