<svg width="286" height="243" viewBox="0 0 286 243" fill="none" xmlns="http://www.w3.org/2000/svg">
<g clip-path="url(#clip0_353_10673)">
<path d="M46.8561 53.2456C43.1708 54.5539 36.1293 56.2546 29.1535 56.2546C19.4138 56.2546 12.4381 53.8344 7.50241 49.1247C2.63255 44.5458 -0.0656093 37.6775 0.000199597 29.8935C0.0660085 12.2976 12.9645 2.28955 30.4039 2.28955C37.248 2.28955 42.5785 3.59779 45.1451 4.90604L42.6443 14.4562C39.7488 13.2134 36.0635 12.1668 30.2723 12.1668C20.2693 12.1668 12.7013 17.7922 12.7013 29.2394C12.7013 40.1632 19.5454 46.5736 29.4168 46.5736C32.1807 46.5736 34.4182 46.2465 35.3396 45.7887V34.734H27.0476V25.4455H46.8561V53.2456Z" fill="white"/>
<path d="M64.3614 17.334L70.1526 36.1727C70.8107 38.4621 71.6004 41.2748 72.061 43.3026H72.3243C72.8507 41.2748 73.5088 38.3313 74.0353 36.1727L78.7735 17.334H91.6721L82.6563 42.5831C77.1283 57.8241 73.443 63.9075 69.0996 67.7668C64.8879 71.3644 60.4787 72.6073 57.5173 72.9998L54.8849 62.9263C56.3985 62.6646 58.307 62.0105 60.0838 60.8985C61.9265 59.9827 63.9007 58.0858 65.0853 56.1234C65.4801 55.6001 65.7434 54.946 65.7434 54.4227C65.7434 54.0302 65.6776 53.3761 65.2169 52.4603L51.0022 17.334H64.3614Z" fill="white"/>
<path d="M96.6736 30.2209C96.6736 25.1842 96.542 20.867 96.3446 17.3347H106.742L107.269 22.6985H107.4C110.23 18.643 114.639 16.4844 120.299 16.4844C128.723 16.4844 136.291 23.8105 136.291 36.0426C136.291 49.9754 127.406 56.582 118.785 56.582C114.113 56.582 110.494 54.6851 108.782 52.1994H108.651V71.2344H96.6736V30.2209V30.2209ZM108.651 39.2478C108.651 40.1636 108.717 41.0794 108.914 41.7335C109.704 44.9387 112.468 47.3589 115.956 47.3589C121.155 47.3589 124.248 43.0417 124.248 36.5659C124.248 30.4172 121.484 25.8383 116.087 25.8383C112.665 25.8383 109.704 28.324 108.914 31.8562C108.782 32.5104 108.651 33.2953 108.651 33.9494V39.2478V39.2478Z" fill="white"/>
<path d="M157.283 6.93359V17.3995H165.904V26.1648H157.283V40.0322C157.283 44.6764 158.402 46.7696 162.021 46.7696C163.667 46.7696 164.391 46.7042 165.575 46.4426L165.641 55.4694C164.062 56.1236 161.232 56.5814 157.81 56.5814C153.927 56.5814 150.702 55.1424 148.794 53.18C146.556 50.8906 145.503 47.2275 145.503 41.7983V26.0994H140.37V17.3341H145.503V10.1388L157.283 6.93359Z" fill="white"/>
<path d="M181.699 40.2944C182.094 45.2657 186.963 47.6206 192.623 47.6206C196.703 47.6206 200.059 47.0973 203.284 46.0507L204.863 54.1618C200.915 55.7317 196.111 56.582 190.912 56.582C177.816 56.582 170.314 48.9942 170.314 36.9584C170.314 27.212 176.368 16.4844 189.793 16.4844C202.297 16.4844 206.969 26.1654 206.969 35.6501C206.969 37.6779 206.706 39.5095 206.575 40.3598H181.699V40.2944ZM195.848 32.1833C195.848 29.3052 194.597 24.3992 189.069 24.3992C184.002 24.3992 181.962 28.9781 181.633 32.1833H195.848Z" fill="white"/>
<path d="M243.164 54.7505C241.058 55.6663 236.978 56.582 232.437 56.582C219.933 56.582 211.971 48.9942 211.971 36.893C211.971 25.7075 219.736 16.4844 234.082 16.4844C237.241 16.4844 240.729 17.0077 243.23 17.9889L241.321 26.8195C239.874 26.1654 237.768 25.6421 234.609 25.6421C228.291 25.6421 224.211 30.0901 224.277 36.3697C224.277 43.4342 229.015 47.0973 234.872 47.0973C237.702 47.0973 239.939 46.6394 241.716 45.8544L243.164 54.7505Z" fill="white"/>
<path d="M249.811 0H261.788V21.9131H261.92C263.17 20.2778 264.749 18.9041 266.658 17.9884C268.5 17.0726 270.672 16.4839 272.91 16.4839C280.543 16.4839 286.4 21.7168 286.4 33.2948V55.7312H274.423V34.603C274.423 29.5663 272.712 26.0995 268.171 26.0995C265.013 26.0995 263.038 28.1272 262.183 30.2858C261.854 31.0708 261.788 32.1174 261.788 32.9677V55.7312H249.811V0Z" fill="white"/>
</g>
<path d="M35.8657 180.96C44.0106 180.96 50.8269 183.756 56.3144 189.347C61.802 194.938 64.5458 201.818 64.5458 209.987C64.5458 218.081 61.8077 224.948 56.3317 230.586C50.8557 236.224 44.1796 239.046 36.3034 239.05C28.3275 239.05 21.5957 236.242 16.1081 230.628C13.4503 227.992 11.3481 224.823 9.93202 221.317C8.51597 217.811 7.81639 214.043 7.87677 210.248C7.84548 205.077 9.13879 199.988 11.6267 195.494C14.0423 191.072 17.5627 187.393 21.8239 184.838C26.0852 182.283 30.9328 180.944 35.8657 180.96V180.96ZM36.1018 186.338C32.1045 186.38 28.1872 187.495 24.7379 189.573C21.2886 191.651 18.427 194.619 16.4364 198.183C14.4295 201.859 13.4022 206.015 13.4584 210.23C13.3918 213.324 13.945 216.4 15.0836 219.265C16.2222 222.13 17.9218 224.724 20.0769 226.884C22.1574 229.079 24.6519 230.813 27.4075 231.982C30.1631 233.15 33.1216 233.727 36.1018 233.678C40.1651 233.706 44.1635 232.629 47.6914 230.556C51.1731 228.547 54.0491 225.59 56.0034 222.01C58.0115 218.336 59.0427 214.183 58.9929 209.969C59.0478 205.796 58.0156 201.684 56.0034 198.059C53.9993 194.492 51.0957 191.547 47.5992 189.536C44.1114 187.438 40.1426 186.334 36.1018 186.338V186.338Z" fill="white" stroke="white" stroke-width="5.5"/>
<path d="M36.2632 189.423L36.2574 212.64" stroke="white" stroke-width="1.5" stroke-miterlimit="1"/>
<path d="M15.9644 210.432H38.5502" stroke="white" stroke-width="1.5" stroke-miterlimit="1"/>
<path d="M40.1572 208.772H56.2858" stroke="white" stroke-width="1.5" stroke-miterlimit="1"/>
<path d="M40.1572 212.089H56.2858" stroke="white" stroke-width="1.5" stroke-miterlimit="1"/>
<path d="M34.783 214.299V230.876" stroke="white" stroke-width="1.5" stroke-miterlimit="1"/>
<path d="M38.0084 214.299V230.876" stroke="white" stroke-width="1.5" stroke-miterlimit="1"/>
<path d="M132.24 237.546L120.72 237.463L112.189 222.775H87.9094L93.2837 213.612H106.774L97.9091 198.509L74.8625 237.546H63.4227L91.2215 189.981C91.973 188.686 92.9492 187.543 94.1016 186.611C95.5993 185.426 96.9433 184.834 98.1338 184.834C99.6245 184.918 101.045 185.514 102.166 186.528C103.346 187.483 104.337 188.661 105.086 189.999L132.24 237.546Z" fill="white"/>
<path d="M192.964 221.264C192.964 226.263 191.236 230.281 187.78 233.317C184.466 236.136 180.336 237.546 175.39 237.546H136.261L141.733 228.354H175.39C177.63 228.411 179.841 227.822 181.772 226.654C182.724 226.077 183.51 225.252 184.051 224.262C184.593 223.271 184.869 222.151 184.854 221.016C184.874 219.891 184.589 218.783 184.032 217.816C183.474 216.848 182.666 216.059 181.697 215.537C179.78 214.41 177.597 213.848 175.39 213.914H151.197C146.738 213.914 143.008 212.653 140.005 210.13C136.802 207.401 135.201 203.798 135.201 199.321C135.14 197.271 135.543 195.235 136.376 193.372C137.21 191.509 138.452 189.87 140.005 188.583C143.019 186.084 146.754 184.834 151.208 184.834H189.888L184.393 194.026H151.208C149.635 193.982 148.096 194.501 146.854 195.495C146.269 195.955 145.8 196.553 145.486 197.239C145.172 197.924 145.023 198.676 145.051 199.433C145.014 200.191 145.16 200.947 145.474 201.634C145.788 202.321 146.262 202.918 146.854 203.372C148.116 204.317 149.647 204.804 151.208 204.758H175.401C180.363 204.758 184.493 206.227 187.791 209.164C191.24 212.24 192.964 216.273 192.964 221.264Z" fill="white"/>
<path d="M209.168 237.546H200.228V184.834H209.168V237.546Z" fill="white"/>
<path d="M274.183 221.264C274.183 226.263 272.455 230.281 268.999 233.317C265.685 236.136 261.555 237.546 256.609 237.546H217.48L222.952 228.354H256.609C258.851 228.411 261.063 227.822 262.997 226.654C263.947 226.076 264.732 225.25 265.272 224.26C265.812 223.27 266.089 222.151 266.073 221.016C266.094 219.891 265.81 218.782 265.253 217.814C264.695 216.847 263.886 216.058 262.916 215.537C260.999 214.41 258.816 213.848 256.609 213.914H232.416C227.957 213.914 224.227 212.653 221.224 210.13C218.021 207.401 216.42 203.798 216.42 199.321C216.359 197.271 216.762 195.235 217.595 193.372C218.429 191.509 219.671 189.87 221.224 188.583C224.238 186.084 227.973 184.834 232.427 184.834H271.107L265.612 194.026H232.427C230.854 193.982 229.315 194.501 228.073 195.495C227.488 195.955 227.019 196.553 226.705 197.239C226.392 197.924 226.242 198.676 226.27 199.433C226.233 200.191 226.379 200.947 226.693 201.634C227.008 202.321 227.481 202.918 228.073 203.372C229.335 204.317 230.867 204.804 232.427 204.758H256.62C261.582 204.758 265.714 206.227 269.016 209.164C272.461 212.24 274.183 216.273 274.183 221.264Z" fill="white"/>
<path d="M272.668 234.501C272.668 233.779 272.911 233.079 273.356 232.521C273.801 231.962 274.421 231.58 275.109 231.438C275.798 231.297 276.513 231.405 277.132 231.745C277.752 232.085 278.238 232.635 278.507 233.301C278.776 233.968 278.813 234.71 278.61 235.401C278.407 236.093 277.977 236.69 277.394 237.092C276.811 237.494 276.11 237.676 275.411 237.606C274.712 237.536 274.058 237.22 273.561 236.71C273.273 236.424 273.045 236.081 272.892 235.701C272.738 235.321 272.662 234.912 272.668 234.501V234.501ZM278.244 234.501C278.244 233.895 278.04 233.308 277.666 232.84C277.292 232.371 276.772 232.051 276.194 231.933C275.616 231.815 275.016 231.906 274.497 232.192C273.977 232.478 273.57 232.94 273.345 233.5C273.12 234.06 273.091 234.683 273.262 235.262C273.434 235.842 273.796 236.343 274.286 236.679C274.776 237.015 275.364 237.165 275.951 237.105C276.537 237.045 277.085 236.778 277.501 236.349C277.736 236.107 277.92 235.818 278.043 235.5C278.166 235.183 278.224 234.843 278.215 234.501H278.244ZM276.625 236.361L275.675 234.708H275.134V236.361H274.598V232.517H275.548C276.453 232.517 276.902 232.872 276.902 233.583C276.908 233.814 276.841 234.041 276.71 234.23C276.579 234.418 276.391 234.557 276.176 234.625L277.196 236.361H276.625ZM275.134 232.991V234.264C275.18 234.264 275.295 234.264 275.485 234.264C275.727 234.286 275.97 234.239 276.188 234.128C276.256 234.062 276.309 233.981 276.34 233.89C276.371 233.799 276.38 233.702 276.366 233.607C276.366 233.18 276.096 232.973 275.554 232.973H275.134V232.991Z" fill="white"/>
<path d="M155 108L125 138" stroke="white" stroke-width="3" stroke-linecap="square" stroke-linejoin="round"/>
<path d="M125 108L155 138" stroke="white" stroke-width="3" stroke-linecap="square" stroke-linejoin="round"/>
<defs>
<clipPath id="clip0_353_10673">
<rect width="286" height="73" fill="white"/>
</clipPath>
</defs>
</svg>
