<svg width="298" height="404" viewBox="0 0 298 404" fill="none" xmlns="http://www.w3.org/2000/svg">
<path d="M0 404L-1.74846e-07 400L4 400L4 404L0 404Z" fill="#0066A4" fill-opacity="0.2"/>
<path d="M-8.74228e-07 384L-1.04907e-06 380L4 380L4 384L-8.74228e-07 384Z" fill="#0066A4" fill-opacity="0.2"/>
<path d="M-1.74846e-06 364L-1.9233e-06 360L4 360L4 364L-1.74846e-06 364Z" fill="#0066A4" fill-opacity="0.2"/>
<path d="M-2.62268e-06 344L-2.79753e-06 340L4 340L4 344L-2.62268e-06 344Z" fill="#0066A4" fill-opacity="0.2"/>
<path d="M-3.49691e-06 324L-3.67176e-06 320L4 320L4 324L-3.49691e-06 324Z" fill="#0066A4" fill-opacity="0.2"/>
<path d="M-4.37114e-06 304L-4.54598e-06 300L4 300L4 304L-4.37114e-06 304Z" fill="#0066A4" fill-opacity="0.2"/>
<path d="M-5.24537e-06 284L-5.42021e-06 280L3.99999 280L3.99999 284L-5.24537e-06 284Z" fill="#0066A4" fill-opacity="0.2"/>
<path d="M-6.11959e-06 264L-6.29444e-06 260L3.99999 260L3.99999 264L-6.11959e-06 264Z" fill="#0066A4" fill-opacity="0.2"/>
<path d="M-6.99382e-06 244L-7.16867e-06 240L3.99999 240L3.99999 244L-6.99382e-06 244Z" fill="#0066A4" fill-opacity="0.2"/>
<path d="M-7.86805e-06 224L-8.0429e-06 220L3.99999 220L3.99999 224L-7.86805e-06 224Z" fill="#0066A4" fill-opacity="0.2"/>
<path d="M-8.74228e-06 204L-8.91712e-06 200L3.99999 200L3.99999 204L-8.74228e-06 204Z" fill="#0066A4" fill-opacity="0.2"/>
<path d="M-9.61651e-06 184L-9.79135e-06 180L3.99999 180L3.99999 184L-9.61651e-06 184Z" fill="#0066A4" fill-opacity="0.2"/>
<path d="M-1.04907e-05 164L-1.06656e-05 160L3.99999 160L3.99999 164L-1.04907e-05 164Z" fill="#0066A4" fill-opacity="0.2"/>
<path d="M-1.1365e-05 144L-1.15398e-05 140L3.99999 140L3.99999 144L-1.1365e-05 144Z" fill="#0066A4" fill-opacity="0.2"/>
<path d="M-1.22392e-05 124L-1.2414e-05 120L3.99999 120L3.99999 124L-1.22392e-05 124Z" fill="#0066A4" fill-opacity="0.2"/>
<path d="M-1.31134e-05 104L-1.32883e-05 100L3.99999 100L3.99999 104L-1.31134e-05 104Z" fill="#0066A4" fill-opacity="0.2"/>
<path d="M-1.39876e-05 84L-1.41625e-05 80L3.99999 80L3.99999 84L-1.39876e-05 84Z" fill="#0066A4" fill-opacity="0.2"/>
<path d="M-1.48619e-05 64L-1.50367e-05 60L3.99998 60L3.99999 64L-1.48619e-05 64Z" fill="#0066A4" fill-opacity="0.2"/>
<path d="M-1.57361e-05 44L-1.59109e-05 40L3.99998 40L3.99998 44L-1.57361e-05 44Z" fill="#0066A4" fill-opacity="0.2"/>
<path d="M-1.66103e-05 24L-1.67852e-05 20L3.99998 20L3.99998 24L-1.66103e-05 24Z" fill="#0066A4" fill-opacity="0.2"/>
<path d="M-1.74846e-05 4L-1.76594e-05 0L3.99998 -1.74846e-07L3.99998 4L-1.74846e-05 4Z" fill="#0066A4" fill-opacity="0.2"/>
<path d="M20 404L20 400L24 400L24 404L20 404Z" fill="#0066A4" fill-opacity="0.2"/>
<path d="M20 384L20 380L24 380L24 384L20 384Z" fill="#0066A4" fill-opacity="0.2"/>
<path d="M20 364L20 360L24 360L24 364L20 364Z" fill="#0066A4" fill-opacity="0.2"/>
<path d="M20 344L20 340L24 340L24 344L20 344Z" fill="#0066A4" fill-opacity="0.2"/>
<path d="M20 324L20 320L24 320L24 324L20 324Z" fill="#0066A4" fill-opacity="0.2"/>
<path d="M20 304L20 300L24 300L24 304L20 304Z" fill="#0066A4" fill-opacity="0.2"/>
<path d="M20 284L20 280L24 280L24 284L20 284Z" fill="#0066A4" fill-opacity="0.2"/>
<path d="M20 264L20 260L24 260L24 264L20 264Z" fill="#0066A4" fill-opacity="0.2"/>
<path d="M20 244L20 240L24 240L24 244L20 244Z" fill="#0066A4" fill-opacity="0.2"/>
<path d="M20 224L20 220L24 220L24 224L20 224Z" fill="#0066A4" fill-opacity="0.2"/>
<path d="M20 204L20 200L24 200L24 204L20 204Z" fill="#0066A4" fill-opacity="0.2"/>
<path d="M20 184L20 180L24 180L24 184L20 184Z" fill="#0066A4" fill-opacity="0.2"/>
<path d="M20 164L20 160L24 160L24 164L20 164Z" fill="#0066A4" fill-opacity="0.2"/>
<path d="M20 144L20 140L24 140L24 144L20 144Z" fill="#0066A4" fill-opacity="0.2"/>
<path d="M20 124L20 120L24 120L24 124L20 124Z" fill="#0066A4" fill-opacity="0.2"/>
<path d="M20 104L20 100L24 100L24 104L20 104Z" fill="#0066A4" fill-opacity="0.2"/>
<path d="M20 84L20 80L24 80L24 84L20 84Z" fill="#0066A4" fill-opacity="0.2"/>
<path d="M20 64L20 60L24 60L24 64L20 64Z" fill="#0066A4" fill-opacity="0.2"/>
<path d="M20 44L20 40L24 40L24 44L20 44Z" fill="#0066A4" fill-opacity="0.2"/>
<path d="M20 24L20 20L24 20L24 24L20 24Z" fill="#0066A4" fill-opacity="0.2"/>
<path d="M20 4L20 -8.74228e-07L24 -1.04907e-06L24 4L20 4Z" fill="#0066A4" fill-opacity="0.2"/>
<path d="M40 404L40 400L44 400L44 404L40 404Z" fill="#0066A4" fill-opacity="0.2"/>
<path d="M40 384L40 380L44 380L44 384L40 384Z" fill="#0066A4" fill-opacity="0.2"/>
<path d="M40 364L40 360L44 360L44 364L40 364Z" fill="#0066A4" fill-opacity="0.2"/>
<path d="M40 344L40 340L44 340L44 344L40 344Z" fill="#0066A4" fill-opacity="0.2"/>
<path d="M40 324L40 320L44 320L44 324L40 324Z" fill="#0066A4" fill-opacity="0.2"/>
<path d="M40 304L40 300L44 300L44 304L40 304Z" fill="#0066A4" fill-opacity="0.2"/>
<path d="M40 284L40 280L44 280L44 284L40 284Z" fill="#0066A4" fill-opacity="0.2"/>
<path d="M40 264L40 260L44 260L44 264L40 264Z" fill="#0066A4" fill-opacity="0.2"/>
<path d="M40 244L40 240L44 240L44 244L40 244Z" fill="#0066A4" fill-opacity="0.2"/>
<path d="M40 224L40 220L44 220L44 224L40 224Z" fill="#0066A4" fill-opacity="0.2"/>
<path d="M40 204L40 200L44 200L44 204L40 204Z" fill="#0066A4" fill-opacity="0.2"/>
<path d="M40 184L40 180L44 180L44 184L40 184Z" fill="#0066A4" fill-opacity="0.2"/>
<path d="M40 164L40 160L44 160L44 164L40 164Z" fill="#0066A4" fill-opacity="0.2"/>
<path d="M40 144L40 140L44 140L44 144L40 144Z" fill="#0066A4" fill-opacity="0.2"/>
<path d="M40 124L40 120L44 120L44 124L40 124Z" fill="#0066A4" fill-opacity="0.2"/>
<path d="M40 104L40 100L44 100L44 104L40 104Z" fill="#0066A4" fill-opacity="0.2"/>
<path d="M40 84L40 80L44 80L44 84L40 84Z" fill="#0066A4" fill-opacity="0.2"/>
<path d="M40 64L40 60L44 60L44 64L40 64Z" fill="#0066A4" fill-opacity="0.2"/>
<path d="M40 44L40 40L44 40L44 44L40 44Z" fill="#0066A4" fill-opacity="0.2"/>
<path d="M40 24L40 20L44 20L44 24L40 24Z" fill="#0066A4" fill-opacity="0.2"/>
<path d="M40 4L40 -1.74846e-06L44 -1.9233e-06L44 4L40 4Z" fill="#0066A4" fill-opacity="0.2"/>
<path d="M60 404L60 400L64 400L64 404L60 404Z" fill="#0066A4" fill-opacity="0.2"/>
<path d="M60 384L60 380L64 380L64 384L60 384Z" fill="#0066A4" fill-opacity="0.2"/>
<path d="M60 364L60 360L64 360L64 364L60 364Z" fill="#0066A4" fill-opacity="0.2"/>
<path d="M60 344L60 340L64 340L64 344L60 344Z" fill="#0066A4" fill-opacity="0.2"/>
<path d="M60 324L60 320L64 320L64 324L60 324Z" fill="#0066A4" fill-opacity="0.2"/>
<path d="M60 304L60 300L64 300L64 304L60 304Z" fill="#0066A4" fill-opacity="0.2"/>
<path d="M60 284L60 280L64 280L64 284L60 284Z" fill="#0066A4" fill-opacity="0.2"/>
<path d="M60 264L60 260L64 260L64 264L60 264Z" fill="#0066A4" fill-opacity="0.2"/>
<path d="M60 244L60 240L64 240L64 244L60 244Z" fill="#0066A4" fill-opacity="0.2"/>
<path d="M60 224L60 220L64 220L64 224L60 224Z" fill="#0066A4" fill-opacity="0.2"/>
<path d="M60 204L60 200L64 200L64 204L60 204Z" fill="#0066A4" fill-opacity="0.2"/>
<path d="M60 184L60 180L64 180L64 184L60 184Z" fill="#0066A4" fill-opacity="0.2"/>
<path d="M60 164L60 160L64 160L64 164L60 164Z" fill="#0066A4" fill-opacity="0.2"/>
<path d="M60 144L60 140L64 140L64 144L60 144Z" fill="#0066A4" fill-opacity="0.2"/>
<path d="M60 124L60 120L64 120L64 124L60 124Z" fill="#0066A4" fill-opacity="0.2"/>
<path d="M60 104L60 100L64 100L64 104L60 104Z" fill="#0066A4" fill-opacity="0.2"/>
<path d="M60 84L60 80L64 80L64 84L60 84Z" fill="#0066A4" fill-opacity="0.2"/>
<path d="M60 64L60 60L64 60L64 64L60 64Z" fill="#0066A4" fill-opacity="0.2"/>
<path d="M60 44L60 40L64 40L64 44L60 44Z" fill="#0066A4" fill-opacity="0.2"/>
<path d="M60 24L60 20L64 20L64 24L60 24Z" fill="#0066A4" fill-opacity="0.2"/>
<path d="M60 4L60 -2.62268e-06L64 -2.79753e-06L64 4L60 4Z" fill="#0066A4" fill-opacity="0.2"/>
<path d="M80 404L80 400L84 400L84 404L80 404Z" fill="#0066A4" fill-opacity="0.2"/>
<path d="M80 384L80 380L84 380L84 384L80 384Z" fill="#0066A4" fill-opacity="0.2"/>
<path d="M80 364L80 360L84 360L84 364L80 364Z" fill="#0066A4" fill-opacity="0.2"/>
<path d="M80 344L80 340L84 340L84 344L80 344Z" fill="#0066A4" fill-opacity="0.2"/>
<path d="M80 324L80 320L84 320L84 324L80 324Z" fill="#0066A4" fill-opacity="0.2"/>
<path d="M80 304L80 300L84 300L84 304L80 304Z" fill="#0066A4" fill-opacity="0.2"/>
<path d="M80 284L80 280L84 280L84 284L80 284Z" fill="#0066A4" fill-opacity="0.2"/>
<path d="M80 264L80 260L84 260L84 264L80 264Z" fill="#0066A4" fill-opacity="0.2"/>
<path d="M80 244L80 240L84 240L84 244L80 244Z" fill="#0066A4" fill-opacity="0.2"/>
<path d="M80 224L80 220L84 220L84 224L80 224Z" fill="#0066A4" fill-opacity="0.2"/>
<path d="M80 204L80 200L84 200L84 204L80 204Z" fill="#0066A4" fill-opacity="0.2"/>
<path d="M80 184L80 180L84 180L84 184L80 184Z" fill="#0066A4" fill-opacity="0.2"/>
<path d="M80 164L80 160L84 160L84 164L80 164Z" fill="#0066A4" fill-opacity="0.2"/>
<path d="M80 144L80 140L84 140L84 144L80 144Z" fill="#0066A4" fill-opacity="0.2"/>
<path d="M80 124L80 120L84 120L84 124L80 124Z" fill="#0066A4" fill-opacity="0.2"/>
<path d="M80 104L80 100L84 100L84 104L80 104Z" fill="#0066A4" fill-opacity="0.2"/>
<path d="M80 84L80 80L84 80L84 84L80 84Z" fill="#0066A4" fill-opacity="0.2"/>
<path d="M80 64L80 60L84 60L84 64L80 64Z" fill="#0066A4" fill-opacity="0.2"/>
<path d="M80 44L80 40L84 40L84 44L80 44Z" fill="#0066A4" fill-opacity="0.2"/>
<path d="M80 24L80 20L84 20L84 24L80 24Z" fill="#0066A4" fill-opacity="0.2"/>
<path d="M80 4L80 -3.49691e-06L84 -3.67176e-06L84 4L80 4Z" fill="#0066A4" fill-opacity="0.2"/>
<path d="M100 404L100 400L104 400L104 404L100 404Z" fill="#0066A4" fill-opacity="0.2"/>
<path d="M100 384L100 380L104 380L104 384L100 384Z" fill="#0066A4" fill-opacity="0.2"/>
<path d="M100 364L100 360L104 360L104 364L100 364Z" fill="#0066A4" fill-opacity="0.2"/>
<path d="M100 344L100 340L104 340L104 344L100 344Z" fill="#0066A4" fill-opacity="0.2"/>
<path d="M100 324L100 320L104 320L104 324L100 324Z" fill="#0066A4" fill-opacity="0.2"/>
<path d="M100 304L100 300L104 300L104 304L100 304Z" fill="#0066A4" fill-opacity="0.2"/>
<path d="M100 284L100 280L104 280L104 284L100 284Z" fill="#0066A4" fill-opacity="0.2"/>
<path d="M100 264L100 260L104 260L104 264L100 264Z" fill="#0066A4" fill-opacity="0.2"/>
<path d="M100 244L100 240L104 240L104 244L100 244Z" fill="#0066A4" fill-opacity="0.2"/>
<path d="M100 224L100 220L104 220L104 224L100 224Z" fill="#0066A4" fill-opacity="0.2"/>
<path d="M100 204L100 200L104 200L104 204L100 204Z" fill="#0066A4" fill-opacity="0.2"/>
<path d="M100 184L100 180L104 180L104 184L100 184Z" fill="#0066A4" fill-opacity="0.2"/>
<path d="M100 164L100 160L104 160L104 164L100 164Z" fill="#0066A4" fill-opacity="0.2"/>
<path d="M100 144L100 140L104 140L104 144L100 144Z" fill="#0066A4" fill-opacity="0.2"/>
<path d="M100 124L100 120L104 120L104 124L100 124Z" fill="#0066A4" fill-opacity="0.2"/>
<path d="M100 104L100 100L104 100L104 104L100 104Z" fill="#0066A4" fill-opacity="0.2"/>
<path d="M100 84L100 80L104 80L104 84L100 84Z" fill="#0066A4" fill-opacity="0.2"/>
<path d="M100 64L100 60L104 60L104 64L100 64Z" fill="#0066A4" fill-opacity="0.2"/>
<path d="M100 44L100 40L104 40L104 44L100 44Z" fill="#0066A4" fill-opacity="0.2"/>
<path d="M100 24L100 20L104 20L104 24L100 24Z" fill="#0066A4" fill-opacity="0.2"/>
<path d="M100 4L100 -4.37114e-06L104 -4.54598e-06L104 4L100 4Z" fill="#0066A4" fill-opacity="0.2"/>
<path d="M120 404L120 400L124 400L124 404L120 404Z" fill="#0066A4" fill-opacity="0.2"/>
<path d="M120 384L120 380L124 380L124 384L120 384Z" fill="#0066A4" fill-opacity="0.2"/>
<path d="M120 364L120 360L124 360L124 364L120 364Z" fill="#0066A4" fill-opacity="0.2"/>
<path d="M120 344L120 340L124 340L124 344L120 344Z" fill="#0066A4" fill-opacity="0.2"/>
<path d="M120 324L120 320L124 320L124 324L120 324Z" fill="#0066A4" fill-opacity="0.2"/>
<path d="M120 304L120 300L124 300L124 304L120 304Z" fill="#0066A4" fill-opacity="0.2"/>
<path d="M120 284L120 280L124 280L124 284L120 284Z" fill="#0066A4" fill-opacity="0.2"/>
<path d="M120 264L120 260L124 260L124 264L120 264Z" fill="#0066A4" fill-opacity="0.2"/>
<path d="M120 244L120 240L124 240L124 244L120 244Z" fill="#0066A4" fill-opacity="0.2"/>
<path d="M120 224L120 220L124 220L124 224L120 224Z" fill="#0066A4" fill-opacity="0.2"/>
<path d="M120 204L120 200L124 200L124 204L120 204Z" fill="#0066A4" fill-opacity="0.2"/>
<path d="M120 184L120 180L124 180L124 184L120 184Z" fill="#0066A4" fill-opacity="0.2"/>
<path d="M120 164L120 160L124 160L124 164L120 164Z" fill="#0066A4" fill-opacity="0.2"/>
<path d="M120 144L120 140L124 140L124 144L120 144Z" fill="#0066A4" fill-opacity="0.2"/>
<path d="M120 124L120 120L124 120L124 124L120 124Z" fill="#0066A4" fill-opacity="0.2"/>
<path d="M120 104L120 100L124 100L124 104L120 104Z" fill="#0066A4" fill-opacity="0.2"/>
<path d="M120 84L120 80L124 80L124 84L120 84Z" fill="#0066A4" fill-opacity="0.2"/>
<path d="M120 64L120 60L124 60L124 64L120 64Z" fill="#0066A4" fill-opacity="0.2"/>
<path d="M120 44L120 40L124 40L124 44L120 44Z" fill="#0066A4" fill-opacity="0.2"/>
<path d="M120 24L120 20L124 20L124 24L120 24Z" fill="#0066A4" fill-opacity="0.2"/>
<path d="M120 3.99999L120 -5.24537e-06L124 -5.42021e-06L124 3.99999L120 3.99999Z" fill="#0066A4" fill-opacity="0.2"/>
<path d="M140 404L140 400L144 400L144 404L140 404Z" fill="#0066A4" fill-opacity="0.2"/>
<path d="M140 384L140 380L144 380L144 384L140 384Z" fill="#0066A4" fill-opacity="0.2"/>
<path d="M140 364L140 360L144 360L144 364L140 364Z" fill="#0066A4" fill-opacity="0.2"/>
<path d="M140 344L140 340L144 340L144 344L140 344Z" fill="#0066A4" fill-opacity="0.2"/>
<path d="M140 324L140 320L144 320L144 324L140 324Z" fill="#0066A4" fill-opacity="0.2"/>
<path d="M140 304L140 300L144 300L144 304L140 304Z" fill="#0066A4" fill-opacity="0.2"/>
<path d="M140 284L140 280L144 280L144 284L140 284Z" fill="#0066A4" fill-opacity="0.2"/>
<path d="M140 264L140 260L144 260L144 264L140 264Z" fill="#0066A4" fill-opacity="0.2"/>
<path d="M140 244L140 240L144 240L144 244L140 244Z" fill="#0066A4" fill-opacity="0.2"/>
<path d="M140 224L140 220L144 220L144 224L140 224Z" fill="#0066A4" fill-opacity="0.2"/>
<path d="M140 204L140 200L144 200L144 204L140 204Z" fill="#0066A4" fill-opacity="0.2"/>
<path d="M140 184L140 180L144 180L144 184L140 184Z" fill="#0066A4" fill-opacity="0.2"/>
<path d="M140 164L140 160L144 160L144 164L140 164Z" fill="#0066A4" fill-opacity="0.2"/>
<path d="M140 144L140 140L144 140L144 144L140 144Z" fill="#0066A4" fill-opacity="0.2"/>
<path d="M140 124L140 120L144 120L144 124L140 124Z" fill="#0066A4" fill-opacity="0.2"/>
<path d="M140 104L140 100L144 100L144 104L140 104Z" fill="#0066A4" fill-opacity="0.2"/>
<path d="M140 84L140 80L144 80L144 84L140 84Z" fill="#0066A4" fill-opacity="0.2"/>
<path d="M140 64L140 60L144 60L144 64L140 64Z" fill="#0066A4" fill-opacity="0.2"/>
<path d="M140 44L140 40L144 40L144 44L140 44Z" fill="#0066A4" fill-opacity="0.2"/>
<path d="M140 24L140 20L144 20L144 24L140 24Z" fill="#0066A4" fill-opacity="0.2"/>
<path d="M140 3.99999L140 -6.11959e-06L144 -6.29444e-06L144 3.99999L140 3.99999Z" fill="#0066A4" fill-opacity="0.2"/>
<path d="M160 404L160 400L164 400L164 404L160 404Z" fill="#0066A4" fill-opacity="0.2"/>
<path d="M160 384L160 380L164 380L164 384L160 384Z" fill="#0066A4" fill-opacity="0.2"/>
<path d="M160 364L160 360L164 360L164 364L160 364Z" fill="#0066A4" fill-opacity="0.2"/>
<path d="M160 344L160 340L164 340L164 344L160 344Z" fill="#0066A4" fill-opacity="0.2"/>
<path d="M160 324L160 320L164 320L164 324L160 324Z" fill="#0066A4" fill-opacity="0.2"/>
<path d="M160 304L160 300L164 300L164 304L160 304Z" fill="#0066A4" fill-opacity="0.2"/>
<path d="M160 284L160 280L164 280L164 284L160 284Z" fill="#0066A4" fill-opacity="0.2"/>
<path d="M160 264L160 260L164 260L164 264L160 264Z" fill="#0066A4" fill-opacity="0.2"/>
<path d="M160 244L160 240L164 240L164 244L160 244Z" fill="#0066A4" fill-opacity="0.2"/>
<path d="M160 224L160 220L164 220L164 224L160 224Z" fill="#0066A4" fill-opacity="0.2"/>
<path d="M160 204L160 200L164 200L164 204L160 204Z" fill="#0066A4" fill-opacity="0.2"/>
<path d="M160 184L160 180L164 180L164 184L160 184Z" fill="#0066A4" fill-opacity="0.2"/>
<path d="M160 164L160 160L164 160L164 164L160 164Z" fill="#0066A4" fill-opacity="0.2"/>
<path d="M160 144L160 140L164 140L164 144L160 144Z" fill="#0066A4" fill-opacity="0.2"/>
<path d="M160 124L160 120L164 120L164 124L160 124Z" fill="#0066A4" fill-opacity="0.2"/>
<path d="M160 104L160 100L164 100L164 104L160 104Z" fill="#0066A4" fill-opacity="0.2"/>
<path d="M160 84L160 80L164 80L164 84L160 84Z" fill="#0066A4" fill-opacity="0.2"/>
<path d="M160 64L160 60L164 60L164 64L160 64Z" fill="#0066A4" fill-opacity="0.2"/>
<path d="M160 44L160 40L164 40L164 44L160 44Z" fill="#0066A4" fill-opacity="0.2"/>
<path d="M160 24L160 20L164 20L164 24L160 24Z" fill="#0066A4" fill-opacity="0.2"/>
<path d="M160 3.99999L160 -6.99382e-06L164 -7.16867e-06L164 3.99999L160 3.99999Z" fill="#0066A4" fill-opacity="0.2"/>
<path d="M180 404L180 400L184 400L184 404L180 404Z" fill="#0066A4" fill-opacity="0.2"/>
<path d="M180 384L180 380L184 380L184 384L180 384Z" fill="#0066A4" fill-opacity="0.2"/>
<path d="M180 364L180 360L184 360L184 364L180 364Z" fill="#0066A4" fill-opacity="0.2"/>
<path d="M180 344L180 340L184 340L184 344L180 344Z" fill="#0066A4" fill-opacity="0.2"/>
<path d="M180 324L180 320L184 320L184 324L180 324Z" fill="#0066A4" fill-opacity="0.2"/>
<path d="M180 304L180 300L184 300L184 304L180 304Z" fill="#0066A4" fill-opacity="0.2"/>
<path d="M180 284L180 280L184 280L184 284L180 284Z" fill="#0066A4" fill-opacity="0.2"/>
<path d="M180 264L180 260L184 260L184 264L180 264Z" fill="#0066A4" fill-opacity="0.2"/>
<path d="M180 244L180 240L184 240L184 244L180 244Z" fill="#0066A4" fill-opacity="0.2"/>
<path d="M180 224L180 220L184 220L184 224L180 224Z" fill="#0066A4" fill-opacity="0.2"/>
<path d="M180 204L180 200L184 200L184 204L180 204Z" fill="#0066A4" fill-opacity="0.2"/>
<path d="M180 184L180 180L184 180L184 184L180 184Z" fill="#0066A4" fill-opacity="0.2"/>
<path d="M180 164L180 160L184 160L184 164L180 164Z" fill="#0066A4" fill-opacity="0.2"/>
<path d="M180 144L180 140L184 140L184 144L180 144Z" fill="#0066A4" fill-opacity="0.2"/>
<path d="M180 124L180 120L184 120L184 124L180 124Z" fill="#0066A4" fill-opacity="0.2"/>
<path d="M180 104L180 100L184 100L184 104L180 104Z" fill="#0066A4" fill-opacity="0.2"/>
<path d="M180 84L180 80L184 80L184 84L180 84Z" fill="#0066A4" fill-opacity="0.2"/>
<path d="M180 64L180 60L184 60L184 64L180 64Z" fill="#0066A4" fill-opacity="0.2"/>
<path d="M180 44L180 40L184 40L184 44L180 44Z" fill="#0066A4" fill-opacity="0.2"/>
<path d="M180 24L180 20L184 20L184 24L180 24Z" fill="#0066A4" fill-opacity="0.2"/>
<path d="M180 3.99999L180 -7.86805e-06L184 -8.0429e-06L184 3.99999L180 3.99999Z" fill="#0066A4" fill-opacity="0.2"/>
<path d="M200 404L200 400L204 400L204 404L200 404Z" fill="#0066A4" fill-opacity="0.2"/>
<path d="M200 384L200 380L204 380L204 384L200 384Z" fill="#0066A4" fill-opacity="0.2"/>
<path d="M200 364L200 360L204 360L204 364L200 364Z" fill="#0066A4" fill-opacity="0.2"/>
<path d="M200 344L200 340L204 340L204 344L200 344Z" fill="#0066A4" fill-opacity="0.2"/>
<path d="M200 324L200 320L204 320L204 324L200 324Z" fill="#0066A4" fill-opacity="0.2"/>
<path d="M200 304L200 300L204 300L204 304L200 304Z" fill="#0066A4" fill-opacity="0.2"/>
<path d="M200 284L200 280L204 280L204 284L200 284Z" fill="#0066A4" fill-opacity="0.2"/>
<path d="M200 264L200 260L204 260L204 264L200 264Z" fill="#0066A4" fill-opacity="0.2"/>
<path d="M200 244L200 240L204 240L204 244L200 244Z" fill="#0066A4" fill-opacity="0.2"/>
<path d="M200 224L200 220L204 220L204 224L200 224Z" fill="#0066A4" fill-opacity="0.2"/>
<path d="M200 204L200 200L204 200L204 204L200 204Z" fill="#0066A4" fill-opacity="0.2"/>
<path d="M200 184L200 180L204 180L204 184L200 184Z" fill="#0066A4" fill-opacity="0.2"/>
<path d="M200 164L200 160L204 160L204 164L200 164Z" fill="#0066A4" fill-opacity="0.2"/>
<path d="M200 144L200 140L204 140L204 144L200 144Z" fill="#0066A4" fill-opacity="0.2"/>
<path d="M200 124L200 120L204 120L204 124L200 124Z" fill="#0066A4" fill-opacity="0.2"/>
<path d="M200 104L200 100L204 100L204 104L200 104Z" fill="#0066A4" fill-opacity="0.2"/>
<path d="M200 84L200 80L204 80L204 84L200 84Z" fill="#0066A4" fill-opacity="0.2"/>
<path d="M200 64L200 60L204 60L204 64L200 64Z" fill="#0066A4" fill-opacity="0.2"/>
<path d="M200 44L200 40L204 40L204 44L200 44Z" fill="#0066A4" fill-opacity="0.2"/>
<path d="M200 24L200 20L204 20L204 24L200 24Z" fill="#0066A4" fill-opacity="0.2"/>
<path d="M200 3.99999L200 -8.74228e-06L204 -8.91712e-06L204 3.99999L200 3.99999Z" fill="#0066A4" fill-opacity="0.2"/>
<path d="M220 404L220 400L224 400L224 404L220 404Z" fill="#0066A4" fill-opacity="0.2"/>
<path d="M220 384L220 380L224 380L224 384L220 384Z" fill="#0066A4" fill-opacity="0.2"/>
<path d="M220 364L220 360L224 360L224 364L220 364Z" fill="#0066A4" fill-opacity="0.2"/>
<path d="M220 344L220 340L224 340L224 344L220 344Z" fill="#0066A4" fill-opacity="0.2"/>
<path d="M220 324L220 320L224 320L224 324L220 324Z" fill="#0066A4" fill-opacity="0.2"/>
<path d="M220 304L220 300L224 300L224 304L220 304Z" fill="#0066A4" fill-opacity="0.2"/>
<path d="M220 284L220 280L224 280L224 284L220 284Z" fill="#0066A4" fill-opacity="0.2"/>
<path d="M220 264L220 260L224 260L224 264L220 264Z" fill="#0066A4" fill-opacity="0.2"/>
<path d="M220 244L220 240L224 240L224 244L220 244Z" fill="#0066A4" fill-opacity="0.2"/>
<path d="M220 224L220 220L224 220L224 224L220 224Z" fill="#0066A4" fill-opacity="0.2"/>
<path d="M220 204L220 200L224 200L224 204L220 204Z" fill="#0066A4" fill-opacity="0.2"/>
<path d="M220 184L220 180L224 180L224 184L220 184Z" fill="#0066A4" fill-opacity="0.2"/>
<path d="M220 164L220 160L224 160L224 164L220 164Z" fill="#0066A4" fill-opacity="0.2"/>
<path d="M220 144L220 140L224 140L224 144L220 144Z" fill="#0066A4" fill-opacity="0.2"/>
<path d="M220 124L220 120L224 120L224 124L220 124Z" fill="#0066A4" fill-opacity="0.2"/>
<path d="M220 104L220 100L224 100L224 104L220 104Z" fill="#0066A4" fill-opacity="0.2"/>
<path d="M220 84L220 80L224 80L224 84L220 84Z" fill="#0066A4" fill-opacity="0.2"/>
<path d="M220 64L220 60L224 60L224 64L220 64Z" fill="#0066A4" fill-opacity="0.2"/>
<path d="M220 44L220 40L224 40L224 44L220 44Z" fill="#0066A4" fill-opacity="0.2"/>
<path d="M220 24L220 20L224 20L224 24L220 24Z" fill="#0066A4" fill-opacity="0.2"/>
<path d="M220 3.99999L220 -9.61651e-06L224 -9.79135e-06L224 3.99999L220 3.99999Z" fill="#0066A4" fill-opacity="0.2"/>
<path d="M240 404L240 400L244 400L244 404L240 404Z" fill="#0066A4" fill-opacity="0.2"/>
<path d="M240 384L240 380L244 380L244 384L240 384Z" fill="#0066A4" fill-opacity="0.2"/>
<path d="M240 364L240 360L244 360L244 364L240 364Z" fill="#0066A4" fill-opacity="0.2"/>
<path d="M240 344L240 340L244 340L244 344L240 344Z" fill="#0066A4" fill-opacity="0.2"/>
<path d="M240 324L240 320L244 320L244 324L240 324Z" fill="#0066A4" fill-opacity="0.2"/>
<path d="M240 304L240 300L244 300L244 304L240 304Z" fill="#0066A4" fill-opacity="0.2"/>
<path d="M240 284L240 280L244 280L244 284L240 284Z" fill="#0066A4" fill-opacity="0.2"/>
<path d="M240 264L240 260L244 260L244 264L240 264Z" fill="#0066A4" fill-opacity="0.2"/>
<path d="M240 244L240 240L244 240L244 244L240 244Z" fill="#0066A4" fill-opacity="0.2"/>
<path d="M240 224L240 220L244 220L244 224L240 224Z" fill="#0066A4" fill-opacity="0.2"/>
<path d="M240 204L240 200L244 200L244 204L240 204Z" fill="#0066A4" fill-opacity="0.2"/>
<path d="M240 184L240 180L244 180L244 184L240 184Z" fill="#0066A4" fill-opacity="0.2"/>
<path d="M240 164L240 160L244 160L244 164L240 164Z" fill="#0066A4" fill-opacity="0.2"/>
<path d="M240 144L240 140L244 140L244 144L240 144Z" fill="#0066A4" fill-opacity="0.2"/>
<path d="M240 124L240 120L244 120L244 124L240 124Z" fill="#0066A4" fill-opacity="0.2"/>
<path d="M240 104L240 100L244 100L244 104L240 104Z" fill="#0066A4" fill-opacity="0.2"/>
<path d="M240 84L240 80L244 80L244 84L240 84Z" fill="#0066A4" fill-opacity="0.2"/>
<path d="M240 64L240 60L244 60L244 64L240 64Z" fill="#0066A4" fill-opacity="0.2"/>
<path d="M240 44L240 40L244 40L244 44L240 44Z" fill="#0066A4" fill-opacity="0.2"/>
<path d="M240 24L240 20L244 20L244 24L240 24Z" fill="#0066A4" fill-opacity="0.2"/>
<path d="M240 3.99999L240 -1.04907e-05L244 -1.06656e-05L244 3.99999L240 3.99999Z" fill="#0066A4" fill-opacity="0.2"/>
<path d="M260 404L260 400L264 400L264 404L260 404Z" fill="#0066A4" fill-opacity="0.2"/>
<path d="M260 384L260 380L264 380L264 384L260 384Z" fill="#0066A4" fill-opacity="0.2"/>
<path d="M260 364L260 360L264 360L264 364L260 364Z" fill="#0066A4" fill-opacity="0.2"/>
<path d="M260 344L260 340L264 340L264 344L260 344Z" fill="#0066A4" fill-opacity="0.2"/>
<path d="M260 324L260 320L264 320L264 324L260 324Z" fill="#0066A4" fill-opacity="0.2"/>
<path d="M260 304L260 300L264 300L264 304L260 304Z" fill="#0066A4" fill-opacity="0.2"/>
<path d="M260 284L260 280L264 280L264 284L260 284Z" fill="#0066A4" fill-opacity="0.2"/>
<path d="M260 264L260 260L264 260L264 264L260 264Z" fill="#0066A4" fill-opacity="0.2"/>
<path d="M260 244L260 240L264 240L264 244L260 244Z" fill="#0066A4" fill-opacity="0.2"/>
<path d="M260 224L260 220L264 220L264 224L260 224Z" fill="#0066A4" fill-opacity="0.2"/>
<path d="M260 204L260 200L264 200L264 204L260 204Z" fill="#0066A4" fill-opacity="0.2"/>
<path d="M260 184L260 180L264 180L264 184L260 184Z" fill="#0066A4" fill-opacity="0.2"/>
<path d="M260 164L260 160L264 160L264 164L260 164Z" fill="#0066A4" fill-opacity="0.2"/>
<path d="M260 144L260 140L264 140L264 144L260 144Z" fill="#0066A4" fill-opacity="0.2"/>
<path d="M260 124L260 120L264 120L264 124L260 124Z" fill="#0066A4" fill-opacity="0.2"/>
<path d="M260 104L260 100L264 100L264 104L260 104Z" fill="#0066A4" fill-opacity="0.2"/>
<path d="M260 84L260 80L264 80L264 84L260 84Z" fill="#0066A4" fill-opacity="0.2"/>
<path d="M260 64L260 60L264 60L264 64L260 64Z" fill="#0066A4" fill-opacity="0.2"/>
<path d="M260 44L260 40L264 40L264 44L260 44Z" fill="#0066A4" fill-opacity="0.2"/>
<path d="M260 24L260 20L264 20L264 24L260 24Z" fill="#0066A4" fill-opacity="0.2"/>
<path d="M260 3.99999L260 -1.1365e-05L264 -1.15398e-05L264 3.99999L260 3.99999Z" fill="#0066A4" fill-opacity="0.2"/>
<path d="M280 404L280 400L284 400L284 404L280 404Z" fill="#0066A4" fill-opacity="0.2"/>
<path d="M280 384L280 380L284 380L284 384L280 384Z" fill="#0066A4" fill-opacity="0.2"/>
<path d="M280 364L280 360L284 360L284 364L280 364Z" fill="#0066A4" fill-opacity="0.2"/>
<path d="M280 344L280 340L284 340L284 344L280 344Z" fill="#0066A4" fill-opacity="0.2"/>
<path d="M280 324L280 320L284 320L284 324L280 324Z" fill="#0066A4" fill-opacity="0.2"/>
<path d="M280 304L280 300L284 300L284 304L280 304Z" fill="#0066A4" fill-opacity="0.2"/>
<path d="M280 284L280 280L284 280L284 284L280 284Z" fill="#0066A4" fill-opacity="0.2"/>
<path d="M280 264L280 260L284 260L284 264L280 264Z" fill="#0066A4" fill-opacity="0.2"/>
<path d="M280 244L280 240L284 240L284 244L280 244Z" fill="#0066A4" fill-opacity="0.2"/>
<path d="M280 224L280 220L284 220L284 224L280 224Z" fill="#0066A4" fill-opacity="0.2"/>
<path d="M280 204L280 200L284 200L284 204L280 204Z" fill="#0066A4" fill-opacity="0.2"/>
<path d="M280 184L280 180L284 180L284 184L280 184Z" fill="#0066A4" fill-opacity="0.2"/>
<path d="M280 164L280 160L284 160L284 164L280 164Z" fill="#0066A4" fill-opacity="0.2"/>
<path d="M280 144L280 140L284 140L284 144L280 144Z" fill="#0066A4" fill-opacity="0.2"/>
<path d="M280 124L280 120L284 120L284 124L280 124Z" fill="#0066A4" fill-opacity="0.2"/>
<path d="M280 104L280 100L284 100L284 104L280 104Z" fill="#0066A4" fill-opacity="0.2"/>
<path d="M280 84L280 80L284 80L284 84L280 84Z" fill="#0066A4" fill-opacity="0.2"/>
<path d="M280 64L280 60L284 60L284 64L280 64Z" fill="#0066A4" fill-opacity="0.2"/>
<path d="M280 44L280 40L284 40L284 44L280 44Z" fill="#0066A4" fill-opacity="0.2"/>
<path d="M280 24L280 20L284 20L284 24L280 24Z" fill="#0066A4" fill-opacity="0.2"/>
<path d="M280 3.99999L280 -1.22392e-05L284 -1.2414e-05L284 3.99999L280 3.99999Z" fill="#0066A4" fill-opacity="0.2"/>
<path d="M300 404L300 400L304 400L304 404L300 404Z" fill="#0066A4" fill-opacity="0.2"/>
<path d="M300 384L300 380L304 380L304 384L300 384Z" fill="#0066A4" fill-opacity="0.2"/>
<path d="M300 364L300 360L304 360L304 364L300 364Z" fill="#0066A4" fill-opacity="0.2"/>
<path d="M300 344L300 340L304 340L304 344L300 344Z" fill="#0066A4" fill-opacity="0.2"/>
<path d="M300 324L300 320L304 320L304 324L300 324Z" fill="#0066A4" fill-opacity="0.2"/>
<path d="M300 304L300 300L304 300L304 304L300 304Z" fill="#0066A4" fill-opacity="0.2"/>
<path d="M300 284L300 280L304 280L304 284L300 284Z" fill="#0066A4" fill-opacity="0.2"/>
<path d="M300 264L300 260L304 260L304 264L300 264Z" fill="#0066A4" fill-opacity="0.2"/>
<path d="M300 244L300 240L304 240L304 244L300 244Z" fill="#0066A4" fill-opacity="0.2"/>
<path d="M300 224L300 220L304 220L304 224L300 224Z" fill="#0066A4" fill-opacity="0.2"/>
<path d="M300 204L300 200L304 200L304 204L300 204Z" fill="#0066A4" fill-opacity="0.2"/>
<path d="M300 184L300 180L304 180L304 184L300 184Z" fill="#0066A4" fill-opacity="0.2"/>
<path d="M300 164L300 160L304 160L304 164L300 164Z" fill="#0066A4" fill-opacity="0.2"/>
<path d="M300 144L300 140L304 140L304 144L300 144Z" fill="#0066A4" fill-opacity="0.2"/>
<path d="M300 124L300 120L304 120L304 124L300 124Z" fill="#0066A4" fill-opacity="0.2"/>
<path d="M300 104L300 100L304 100L304 104L300 104Z" fill="#0066A4" fill-opacity="0.2"/>
<path d="M300 84L300 80L304 80L304 84L300 84Z" fill="#0066A4" fill-opacity="0.2"/>
<path d="M300 64L300 60L304 60L304 64L300 64Z" fill="#0066A4" fill-opacity="0.2"/>
<path d="M300 44L300 40L304 40L304 44L300 44Z" fill="#0066A4" fill-opacity="0.2"/>
<path d="M300 24L300 20L304 20L304 24L300 24Z" fill="#0066A4" fill-opacity="0.2"/>
<path d="M300 3.99999L300 -1.31134e-05L304 -1.32883e-05L304 3.99999L300 3.99999Z" fill="#0066A4" fill-opacity="0.2"/>
<path d="M320 404L320 400L324 400L324 404L320 404Z" fill="#0066A4" fill-opacity="0.2"/>
<path d="M320 384L320 380L324 380L324 384L320 384Z" fill="#0066A4" fill-opacity="0.2"/>
<path d="M320 364L320 360L324 360L324 364L320 364Z" fill="#0066A4" fill-opacity="0.2"/>
<path d="M320 344L320 340L324 340L324 344L320 344Z" fill="#0066A4" fill-opacity="0.2"/>
<path d="M320 324L320 320L324 320L324 324L320 324Z" fill="#0066A4" fill-opacity="0.2"/>
<path d="M320 304L320 300L324 300L324 304L320 304Z" fill="#0066A4" fill-opacity="0.2"/>
<path d="M320 284L320 280L324 280L324 284L320 284Z" fill="#0066A4" fill-opacity="0.2"/>
<path d="M320 264L320 260L324 260L324 264L320 264Z" fill="#0066A4" fill-opacity="0.2"/>
<path d="M320 244L320 240L324 240L324 244L320 244Z" fill="#0066A4" fill-opacity="0.2"/>
<path d="M320 224L320 220L324 220L324 224L320 224Z" fill="#0066A4" fill-opacity="0.2"/>
<path d="M320 204L320 200L324 200L324 204L320 204Z" fill="#0066A4" fill-opacity="0.2"/>
<path d="M320 184L320 180L324 180L324 184L320 184Z" fill="#0066A4" fill-opacity="0.2"/>
<path d="M320 164L320 160L324 160L324 164L320 164Z" fill="#0066A4" fill-opacity="0.2"/>
<path d="M320 144L320 140L324 140L324 144L320 144Z" fill="#0066A4" fill-opacity="0.2"/>
<path d="M320 124L320 120L324 120L324 124L320 124Z" fill="#0066A4" fill-opacity="0.2"/>
<path d="M320 104L320 100L324 100L324 104L320 104Z" fill="#0066A4" fill-opacity="0.2"/>
<path d="M320 84L320 80L324 80L324 84L320 84Z" fill="#0066A4" fill-opacity="0.2"/>
<path d="M320 64L320 60L324 60L324 64L320 64Z" fill="#0066A4" fill-opacity="0.2"/>
<path d="M320 44L320 40L324 40L324 44L320 44Z" fill="#0066A4" fill-opacity="0.2"/>
<path d="M320 24L320 20L324 20L324 24L320 24Z" fill="#0066A4" fill-opacity="0.2"/>
<path d="M320 3.99999L320 -1.39876e-05L324 -1.41625e-05L324 3.99999L320 3.99999Z" fill="#0066A4" fill-opacity="0.2"/>
<path d="M340 404L340 400L344 400L344 404L340 404Z" fill="#0066A4" fill-opacity="0.2"/>
<path d="M340 384L340 380L344 380L344 384L340 384Z" fill="#0066A4" fill-opacity="0.2"/>
<path d="M340 364L340 360L344 360L344 364L340 364Z" fill="#0066A4" fill-opacity="0.2"/>
<path d="M340 344L340 340L344 340L344 344L340 344Z" fill="#0066A4" fill-opacity="0.2"/>
<path d="M340 324L340 320L344 320L344 324L340 324Z" fill="#0066A4" fill-opacity="0.2"/>
<path d="M340 304L340 300L344 300L344 304L340 304Z" fill="#0066A4" fill-opacity="0.2"/>
<path d="M340 284L340 280L344 280L344 284L340 284Z" fill="#0066A4" fill-opacity="0.2"/>
<path d="M340 264L340 260L344 260L344 264L340 264Z" fill="#0066A4" fill-opacity="0.2"/>
<path d="M340 244L340 240L344 240L344 244L340 244Z" fill="#0066A4" fill-opacity="0.2"/>
<path d="M340 224L340 220L344 220L344 224L340 224Z" fill="#0066A4" fill-opacity="0.2"/>
<path d="M340 204L340 200L344 200L344 204L340 204Z" fill="#0066A4" fill-opacity="0.2"/>
<path d="M340 184L340 180L344 180L344 184L340 184Z" fill="#0066A4" fill-opacity="0.2"/>
<path d="M340 164L340 160L344 160L344 164L340 164Z" fill="#0066A4" fill-opacity="0.2"/>
<path d="M340 144L340 140L344 140L344 144L340 144Z" fill="#0066A4" fill-opacity="0.2"/>
<path d="M340 124L340 120L344 120L344 124L340 124Z" fill="#0066A4" fill-opacity="0.2"/>
<path d="M340 104L340 100L344 100L344 104L340 104Z" fill="#0066A4" fill-opacity="0.2"/>
<path d="M340 84L340 80L344 80L344 84L340 84Z" fill="#0066A4" fill-opacity="0.2"/>
<path d="M340 64L340 60L344 60L344 64L340 64Z" fill="#0066A4" fill-opacity="0.2"/>
<path d="M340 44L340 40L344 40L344 44L340 44Z" fill="#0066A4" fill-opacity="0.2"/>
<path d="M340 24L340 20L344 20L344 24L340 24Z" fill="#0066A4" fill-opacity="0.2"/>
<path d="M340 3.99999L340 -1.48619e-05L344 -1.50367e-05L344 3.99998L340 3.99999Z" fill="#0066A4" fill-opacity="0.2"/>
<path d="M360 404L360 400L364 400L364 404L360 404Z" fill="#0066A4" fill-opacity="0.2"/>
<path d="M360 384L360 380L364 380L364 384L360 384Z" fill="#0066A4" fill-opacity="0.2"/>
<path d="M360 364L360 360L364 360L364 364L360 364Z" fill="#0066A4" fill-opacity="0.2"/>
<path d="M360 344L360 340L364 340L364 344L360 344Z" fill="#0066A4" fill-opacity="0.2"/>
<path d="M360 324L360 320L364 320L364 324L360 324Z" fill="#0066A4" fill-opacity="0.2"/>
<path d="M360 304L360 300L364 300L364 304L360 304Z" fill="#0066A4" fill-opacity="0.2"/>
<path d="M360 284L360 280L364 280L364 284L360 284Z" fill="#0066A4" fill-opacity="0.2"/>
<path d="M360 264L360 260L364 260L364 264L360 264Z" fill="#0066A4" fill-opacity="0.2"/>
<path d="M360 244L360 240L364 240L364 244L360 244Z" fill="#0066A4" fill-opacity="0.2"/>
<path d="M360 224L360 220L364 220L364 224L360 224Z" fill="#0066A4" fill-opacity="0.2"/>
<path d="M360 204L360 200L364 200L364 204L360 204Z" fill="#0066A4" fill-opacity="0.2"/>
<path d="M360 184L360 180L364 180L364 184L360 184Z" fill="#0066A4" fill-opacity="0.2"/>
<path d="M360 164L360 160L364 160L364 164L360 164Z" fill="#0066A4" fill-opacity="0.2"/>
<path d="M360 144L360 140L364 140L364 144L360 144Z" fill="#0066A4" fill-opacity="0.2"/>
<path d="M360 124L360 120L364 120L364 124L360 124Z" fill="#0066A4" fill-opacity="0.2"/>
<path d="M360 104L360 100L364 100L364 104L360 104Z" fill="#0066A4" fill-opacity="0.2"/>
<path d="M360 84L360 80L364 80L364 84L360 84Z" fill="#0066A4" fill-opacity="0.2"/>
<path d="M360 64L360 60L364 60L364 64L360 64Z" fill="#0066A4" fill-opacity="0.2"/>
<path d="M360 44L360 40L364 40L364 44L360 44Z" fill="#0066A4" fill-opacity="0.2"/>
<path d="M360 24L360 20L364 20L364 24L360 24Z" fill="#0066A4" fill-opacity="0.2"/>
<path d="M360 3.99998L360 -1.57361e-05L364 -1.59109e-05L364 3.99998L360 3.99998Z" fill="#0066A4" fill-opacity="0.2"/>
<path d="M380 404L380 400L384 400L384 404L380 404Z" fill="#0066A4" fill-opacity="0.2"/>
<path d="M380 384L380 380L384 380L384 384L380 384Z" fill="#0066A4" fill-opacity="0.2"/>
<path d="M380 364L380 360L384 360L384 364L380 364Z" fill="#0066A4" fill-opacity="0.2"/>
<path d="M380 344L380 340L384 340L384 344L380 344Z" fill="#0066A4" fill-opacity="0.2"/>
<path d="M380 324L380 320L384 320L384 324L380 324Z" fill="#0066A4" fill-opacity="0.2"/>
<path d="M380 304L380 300L384 300L384 304L380 304Z" fill="#0066A4" fill-opacity="0.2"/>
<path d="M380 284L380 280L384 280L384 284L380 284Z" fill="#0066A4" fill-opacity="0.2"/>
<path d="M380 264L380 260L384 260L384 264L380 264Z" fill="#0066A4" fill-opacity="0.2"/>
<path d="M380 244L380 240L384 240L384 244L380 244Z" fill="#0066A4" fill-opacity="0.2"/>
<path d="M380 224L380 220L384 220L384 224L380 224Z" fill="#0066A4" fill-opacity="0.2"/>
<path d="M380 204L380 200L384 200L384 204L380 204Z" fill="#0066A4" fill-opacity="0.2"/>
<path d="M380 184L380 180L384 180L384 184L380 184Z" fill="#0066A4" fill-opacity="0.2"/>
<path d="M380 164L380 160L384 160L384 164L380 164Z" fill="#0066A4" fill-opacity="0.2"/>
<path d="M380 144L380 140L384 140L384 144L380 144Z" fill="#0066A4" fill-opacity="0.2"/>
<path d="M380 124L380 120L384 120L384 124L380 124Z" fill="#0066A4" fill-opacity="0.2"/>
<path d="M380 104L380 100L384 100L384 104L380 104Z" fill="#0066A4" fill-opacity="0.2"/>
<path d="M380 84L380 80L384 80L384 84L380 84Z" fill="#0066A4" fill-opacity="0.2"/>
<path d="M380 64L380 60L384 60L384 64L380 64Z" fill="#0066A4" fill-opacity="0.2"/>
<path d="M380 44L380 40L384 40L384 44L380 44Z" fill="#0066A4" fill-opacity="0.2"/>
<path d="M380 24L380 20L384 20L384 24L380 24Z" fill="#0066A4" fill-opacity="0.2"/>
<path d="M380 3.99998L380 -1.66103e-05L384 -1.67852e-05L384 3.99998L380 3.99998Z" fill="#0066A4" fill-opacity="0.2"/>
<path d="M400 404L400 400L404 400L404 404L400 404Z" fill="#0066A4" fill-opacity="0.2"/>
<path d="M400 384L400 380L404 380L404 384L400 384Z" fill="#0066A4" fill-opacity="0.2"/>
<path d="M400 364L400 360L404 360L404 364L400 364Z" fill="#0066A4" fill-opacity="0.2"/>
<path d="M400 344L400 340L404 340L404 344L400 344Z" fill="#0066A4" fill-opacity="0.2"/>
<path d="M400 324L400 320L404 320L404 324L400 324Z" fill="#0066A4" fill-opacity="0.2"/>
<path d="M400 304L400 300L404 300L404 304L400 304Z" fill="#0066A4" fill-opacity="0.2"/>
<path d="M400 284L400 280L404 280L404 284L400 284Z" fill="#0066A4" fill-opacity="0.2"/>
<path d="M400 264L400 260L404 260L404 264L400 264Z" fill="#0066A4" fill-opacity="0.2"/>
<path d="M400 244L400 240L404 240L404 244L400 244Z" fill="#0066A4" fill-opacity="0.2"/>
<path d="M400 224L400 220L404 220L404 224L400 224Z" fill="#0066A4" fill-opacity="0.2"/>
<path d="M400 204L400 200L404 200L404 204L400 204Z" fill="#0066A4" fill-opacity="0.2"/>
<path d="M400 184L400 180L404 180L404 184L400 184Z" fill="#0066A4" fill-opacity="0.2"/>
<path d="M400 164L400 160L404 160L404 164L400 164Z" fill="#0066A4" fill-opacity="0.2"/>
<path d="M400 144L400 140L404 140L404 144L400 144Z" fill="#0066A4" fill-opacity="0.2"/>
<path d="M400 124L400 120L404 120L404 124L400 124Z" fill="#0066A4" fill-opacity="0.2"/>
<path d="M400 104L400 100L404 100L404 104L400 104Z" fill="#0066A4" fill-opacity="0.2"/>
<path d="M400 84L400 80L404 80L404 84L400 84Z" fill="#0066A4" fill-opacity="0.2"/>
<path d="M400 64L400 60L404 60L404 64L400 64Z" fill="#0066A4" fill-opacity="0.2"/>
<path d="M400 44L400 40L404 40L404 44L400 44Z" fill="#0066A4" fill-opacity="0.2"/>
<path d="M400 24L400 20L404 20L404 24L400 24Z" fill="#0066A4" fill-opacity="0.2"/>
<path d="M400 3.99998L400 -1.74846e-05L404 -1.76594e-05L404 3.99998L400 3.99998Z" fill="#0066A4" fill-opacity="0.2"/>
</svg>
