<svg width="252" height="96" viewBox="0 0 252 96" fill="none" xmlns="http://www.w3.org/2000/svg">
<g clip-path="url(#clip0_168_12528)">
<path d="M252 -308L252 -304L248 -304L248 -308L252 -308Z" fill="white" fill-opacity="0.2"/>
<path d="M252 -288L252 -284L248 -284L248 -288L252 -288Z" fill="white" fill-opacity="0.2"/>
<path d="M252 -268L252 -264L248 -264L248 -268L252 -268Z" fill="white" fill-opacity="0.2"/>
<path d="M252 -248L252 -244L248 -244L248 -248L252 -248Z" fill="white" fill-opacity="0.2"/>
<path d="M252 -228L252 -224L248 -224L248 -228L252 -228Z" fill="white" fill-opacity="0.2"/>
<path d="M252 -208L252 -204L248 -204L248 -208L252 -208Z" fill="white" fill-opacity="0.2"/>
<path d="M252 -188L252 -184L248 -184L248 -188L252 -188Z" fill="white" fill-opacity="0.2"/>
<path d="M252 -168L252 -164L248 -164L248 -168L252 -168Z" fill="white" fill-opacity="0.2"/>
<path d="M252 -148L252 -144L248 -144L248 -148L252 -148Z" fill="white" fill-opacity="0.2"/>
<path d="M252 -128L252 -124L248 -124L248 -128L252 -128Z" fill="white" fill-opacity="0.2"/>
<path d="M252 -108L252 -104L248 -104L248 -108L252 -108Z" fill="white" fill-opacity="0.2"/>
<path d="M252 -88L252 -84L248 -84L248 -88L252 -88Z" fill="white" fill-opacity="0.2"/>
<path d="M252 -68L252 -64L248 -64L248 -68L252 -68Z" fill="white" fill-opacity="0.2"/>
<path d="M252 -48L252 -44L248 -44L248 -48L252 -48Z" fill="white" fill-opacity="0.2"/>
<path d="M252 -28L252 -24L248 -24L248 -28L252 -28Z" fill="white" fill-opacity="0.2"/>
<path d="M252 -8L252 -4L248 -4L248 -8L252 -8Z" fill="white" fill-opacity="0.2"/>
<path d="M252 12L252 16L248 16L248 12L252 12Z" fill="white" fill-opacity="0.2"/>
<path d="M252 32L252 36L248 36L248 32L252 32Z" fill="white" fill-opacity="0.2"/>
<path d="M252 52L252 56L248 56L248 52L252 52Z" fill="white" fill-opacity="0.2"/>
<path d="M252 72L252 76L248 76L248 72L252 72Z" fill="white" fill-opacity="0.2"/>
<path d="M252 92L252 96L248 96L248 92L252 92Z" fill="white" fill-opacity="0.2"/>
<path d="M232 -308L232 -304L228 -304L228 -308L232 -308Z" fill="white" fill-opacity="0.2"/>
<path d="M232 -288L232 -284L228 -284L228 -288L232 -288Z" fill="white" fill-opacity="0.2"/>
<path d="M232 -268L232 -264L228 -264L228 -268L232 -268Z" fill="white" fill-opacity="0.2"/>
<path d="M232 -248L232 -244L228 -244L228 -248L232 -248Z" fill="white" fill-opacity="0.2"/>
<path d="M232 -228L232 -224L228 -224L228 -228L232 -228Z" fill="white" fill-opacity="0.2"/>
<path d="M232 -208L232 -204L228 -204L228 -208L232 -208Z" fill="white" fill-opacity="0.2"/>
<path d="M232 -188L232 -184L228 -184L228 -188L232 -188Z" fill="white" fill-opacity="0.2"/>
<path d="M232 -168L232 -164L228 -164L228 -168L232 -168Z" fill="white" fill-opacity="0.2"/>
<path d="M232 -148L232 -144L228 -144L228 -148L232 -148Z" fill="white" fill-opacity="0.2"/>
<path d="M232 -128L232 -124L228 -124L228 -128L232 -128Z" fill="white" fill-opacity="0.2"/>
<path d="M232 -108L232 -104L228 -104L228 -108L232 -108Z" fill="white" fill-opacity="0.2"/>
<path d="M232 -88L232 -84L228 -84L228 -88L232 -88Z" fill="white" fill-opacity="0.2"/>
<path d="M232 -68L232 -64L228 -64L228 -68L232 -68Z" fill="white" fill-opacity="0.2"/>
<path d="M232 -48L232 -44L228 -44L228 -48L232 -48Z" fill="white" fill-opacity="0.2"/>
<path d="M232 -28L232 -24L228 -24L228 -28L232 -28Z" fill="white" fill-opacity="0.2"/>
<path d="M232 -8L232 -4L228 -4L228 -8L232 -8Z" fill="white" fill-opacity="0.2"/>
<path d="M232 12L232 16L228 16L228 12L232 12Z" fill="white" fill-opacity="0.2"/>
<path d="M232 32L232 36L228 36L228 32L232 32Z" fill="white" fill-opacity="0.2"/>
<path d="M232 52L232 56L228 56L228 52L232 52Z" fill="white" fill-opacity="0.2"/>
<path d="M232 72L232 76L228 76L228 72L232 72Z" fill="white" fill-opacity="0.2"/>
<path d="M232 92L232 96L228 96L228 92L232 92Z" fill="white" fill-opacity="0.2"/>
<path d="M212 -308L212 -304L208 -304L208 -308L212 -308Z" fill="white" fill-opacity="0.2"/>
<path d="M212 -288L212 -284L208 -284L208 -288L212 -288Z" fill="white" fill-opacity="0.2"/>
<path d="M212 -268L212 -264L208 -264L208 -268L212 -268Z" fill="white" fill-opacity="0.2"/>
<path d="M212 -248L212 -244L208 -244L208 -248L212 -248Z" fill="white" fill-opacity="0.2"/>
<path d="M212 -228L212 -224L208 -224L208 -228L212 -228Z" fill="white" fill-opacity="0.2"/>
<path d="M212 -208L212 -204L208 -204L208 -208L212 -208Z" fill="white" fill-opacity="0.2"/>
<path d="M212 -188L212 -184L208 -184L208 -188L212 -188Z" fill="white" fill-opacity="0.2"/>
<path d="M212 -168L212 -164L208 -164L208 -168L212 -168Z" fill="white" fill-opacity="0.2"/>
<path d="M212 -148L212 -144L208 -144L208 -148L212 -148Z" fill="white" fill-opacity="0.2"/>
<path d="M212 -128L212 -124L208 -124L208 -128L212 -128Z" fill="white" fill-opacity="0.2"/>
<path d="M212 -108L212 -104L208 -104L208 -108L212 -108Z" fill="white" fill-opacity="0.2"/>
<path d="M212 -88L212 -84L208 -84L208 -88L212 -88Z" fill="white" fill-opacity="0.2"/>
<path d="M212 -68L212 -64L208 -64L208 -68L212 -68Z" fill="white" fill-opacity="0.2"/>
<path d="M212 -48L212 -44L208 -44L208 -48L212 -48Z" fill="white" fill-opacity="0.2"/>
<path d="M212 -28L212 -24L208 -24L208 -28L212 -28Z" fill="white" fill-opacity="0.2"/>
<path d="M212 -8L212 -4L208 -4L208 -8L212 -8Z" fill="white" fill-opacity="0.2"/>
<path d="M212 12L212 16L208 16L208 12L212 12Z" fill="white" fill-opacity="0.2"/>
<path d="M212 32L212 36L208 36L208 32L212 32Z" fill="white" fill-opacity="0.2"/>
<path d="M212 52L212 56L208 56L208 52L212 52Z" fill="white" fill-opacity="0.2"/>
<path d="M212 72L212 76L208 76L208 72L212 72Z" fill="white" fill-opacity="0.2"/>
<path d="M212 92L212 96L208 96L208 92L212 92Z" fill="white" fill-opacity="0.2"/>
<path d="M192 -308L192 -304L188 -304L188 -308L192 -308Z" fill="white" fill-opacity="0.2"/>
<path d="M192 -288L192 -284L188 -284L188 -288L192 -288Z" fill="white" fill-opacity="0.2"/>
<path d="M192 -268L192 -264L188 -264L188 -268L192 -268Z" fill="white" fill-opacity="0.2"/>
<path d="M192 -248L192 -244L188 -244L188 -248L192 -248Z" fill="white" fill-opacity="0.2"/>
<path d="M192 -228L192 -224L188 -224L188 -228L192 -228Z" fill="white" fill-opacity="0.2"/>
<path d="M192 -208L192 -204L188 -204L188 -208L192 -208Z" fill="white" fill-opacity="0.2"/>
<path d="M192 -188L192 -184L188 -184L188 -188L192 -188Z" fill="white" fill-opacity="0.2"/>
<path d="M192 -168L192 -164L188 -164L188 -168L192 -168Z" fill="white" fill-opacity="0.2"/>
<path d="M192 -148L192 -144L188 -144L188 -148L192 -148Z" fill="white" fill-opacity="0.2"/>
<path d="M192 -128L192 -124L188 -124L188 -128L192 -128Z" fill="white" fill-opacity="0.2"/>
<path d="M192 -108L192 -104L188 -104L188 -108L192 -108Z" fill="white" fill-opacity="0.2"/>
<path d="M192 -88L192 -84L188 -84L188 -88L192 -88Z" fill="white" fill-opacity="0.2"/>
<path d="M192 -68L192 -64L188 -64L188 -68L192 -68Z" fill="white" fill-opacity="0.2"/>
<path d="M192 -48L192 -44L188 -44L188 -48L192 -48Z" fill="white" fill-opacity="0.2"/>
<path d="M192 -28L192 -24L188 -24L188 -28L192 -28Z" fill="white" fill-opacity="0.2"/>
<path d="M192 -8L192 -4L188 -4L188 -8L192 -8Z" fill="white" fill-opacity="0.2"/>
<path d="M192 12L192 16L188 16L188 12L192 12Z" fill="white" fill-opacity="0.2"/>
<path d="M192 32L192 36L188 36L188 32L192 32Z" fill="white" fill-opacity="0.2"/>
<path d="M192 52L192 56L188 56L188 52L192 52Z" fill="white" fill-opacity="0.2"/>
<path d="M192 72L192 76L188 76L188 72L192 72Z" fill="white" fill-opacity="0.2"/>
<path d="M192 92L192 96L188 96L188 92L192 92Z" fill="white" fill-opacity="0.2"/>
<path d="M172 -308L172 -304L168 -304L168 -308L172 -308Z" fill="white" fill-opacity="0.2"/>
<path d="M172 -288L172 -284L168 -284L168 -288L172 -288Z" fill="white" fill-opacity="0.2"/>
<path d="M172 -268L172 -264L168 -264L168 -268L172 -268Z" fill="white" fill-opacity="0.2"/>
<path d="M172 -248L172 -244L168 -244L168 -248L172 -248Z" fill="white" fill-opacity="0.2"/>
<path d="M172 -228L172 -224L168 -224L168 -228L172 -228Z" fill="white" fill-opacity="0.2"/>
<path d="M172 -208L172 -204L168 -204L168 -208L172 -208Z" fill="white" fill-opacity="0.2"/>
<path d="M172 -188L172 -184L168 -184L168 -188L172 -188Z" fill="white" fill-opacity="0.2"/>
<path d="M172 -168L172 -164L168 -164L168 -168L172 -168Z" fill="white" fill-opacity="0.2"/>
<path d="M172 -148L172 -144L168 -144L168 -148L172 -148Z" fill="white" fill-opacity="0.2"/>
<path d="M172 -128L172 -124L168 -124L168 -128L172 -128Z" fill="white" fill-opacity="0.2"/>
<path d="M172 -108L172 -104L168 -104L168 -108L172 -108Z" fill="white" fill-opacity="0.2"/>
<path d="M172 -88L172 -84L168 -84L168 -88L172 -88Z" fill="white" fill-opacity="0.2"/>
<path d="M172 -68L172 -64L168 -64L168 -68L172 -68Z" fill="white" fill-opacity="0.2"/>
<path d="M172 -48L172 -44L168 -44L168 -48L172 -48Z" fill="white" fill-opacity="0.2"/>
<path d="M172 -28L172 -24L168 -24L168 -28L172 -28Z" fill="white" fill-opacity="0.2"/>
<path d="M172 -8L172 -4L168 -4L168 -8L172 -8Z" fill="white" fill-opacity="0.2"/>
<path d="M172 12L172 16L168 16L168 12L172 12Z" fill="white" fill-opacity="0.2"/>
<path d="M172 32L172 36L168 36L168 32L172 32Z" fill="white" fill-opacity="0.2"/>
<path d="M172 52L172 56L168 56L168 52L172 52Z" fill="white" fill-opacity="0.2"/>
<path d="M172 72L172 76L168 76L168 72L172 72Z" fill="white" fill-opacity="0.2"/>
<path d="M172 92L172 96L168 96L168 92L172 92Z" fill="white" fill-opacity="0.2"/>
<path d="M152 -308L152 -304L148 -304L148 -308L152 -308Z" fill="white" fill-opacity="0.2"/>
<path d="M152 -288L152 -284L148 -284L148 -288L152 -288Z" fill="white" fill-opacity="0.2"/>
<path d="M152 -268L152 -264L148 -264L148 -268L152 -268Z" fill="white" fill-opacity="0.2"/>
<path d="M152 -248L152 -244L148 -244L148 -248L152 -248Z" fill="white" fill-opacity="0.2"/>
<path d="M152 -228L152 -224L148 -224L148 -228L152 -228Z" fill="white" fill-opacity="0.2"/>
<path d="M152 -208L152 -204L148 -204L148 -208L152 -208Z" fill="white" fill-opacity="0.2"/>
<path d="M152 -188L152 -184L148 -184L148 -188L152 -188Z" fill="white" fill-opacity="0.2"/>
<path d="M152 -168L152 -164L148 -164L148 -168L152 -168Z" fill="white" fill-opacity="0.2"/>
<path d="M152 -148L152 -144L148 -144L148 -148L152 -148Z" fill="white" fill-opacity="0.2"/>
<path d="M152 -128L152 -124L148 -124L148 -128L152 -128Z" fill="white" fill-opacity="0.2"/>
<path d="M152 -108L152 -104L148 -104L148 -108L152 -108Z" fill="white" fill-opacity="0.2"/>
<path d="M152 -88L152 -84L148 -84L148 -88L152 -88Z" fill="white" fill-opacity="0.2"/>
<path d="M152 -68L152 -64L148 -64L148 -68L152 -68Z" fill="white" fill-opacity="0.2"/>
<path d="M152 -48L152 -44L148 -44L148 -48L152 -48Z" fill="white" fill-opacity="0.2"/>
<path d="M152 -28L152 -24L148 -24L148 -28L152 -28Z" fill="white" fill-opacity="0.2"/>
<path d="M152 -8L152 -4L148 -4L148 -8L152 -8Z" fill="white" fill-opacity="0.2"/>
<path d="M152 12L152 16L148 16L148 12L152 12Z" fill="white" fill-opacity="0.2"/>
<path d="M152 32L152 36L148 36L148 32L152 32Z" fill="white" fill-opacity="0.2"/>
<path d="M152 52L152 56L148 56L148 52L152 52Z" fill="white" fill-opacity="0.2"/>
<path d="M152 72L152 76L148 76L148 72L152 72Z" fill="white" fill-opacity="0.2"/>
<path d="M152 92L152 96L148 96L148 92L152 92Z" fill="white" fill-opacity="0.2"/>
<path d="M132 -308L132 -304L128 -304L128 -308L132 -308Z" fill="white" fill-opacity="0.2"/>
<path d="M132 -288L132 -284L128 -284L128 -288L132 -288Z" fill="white" fill-opacity="0.2"/>
<path d="M132 -268L132 -264L128 -264L128 -268L132 -268Z" fill="white" fill-opacity="0.2"/>
<path d="M132 -248L132 -244L128 -244L128 -248L132 -248Z" fill="white" fill-opacity="0.2"/>
<path d="M132 -228L132 -224L128 -224L128 -228L132 -228Z" fill="white" fill-opacity="0.2"/>
<path d="M132 -208L132 -204L128 -204L128 -208L132 -208Z" fill="white" fill-opacity="0.2"/>
<path d="M132 -188L132 -184L128 -184L128 -188L132 -188Z" fill="white" fill-opacity="0.2"/>
<path d="M132 -168L132 -164L128 -164L128 -168L132 -168Z" fill="white" fill-opacity="0.2"/>
<path d="M132 -148L132 -144L128 -144L128 -148L132 -148Z" fill="white" fill-opacity="0.2"/>
<path d="M132 -128L132 -124L128 -124L128 -128L132 -128Z" fill="white" fill-opacity="0.2"/>
<path d="M132 -108L132 -104L128 -104L128 -108L132 -108Z" fill="white" fill-opacity="0.2"/>
<path d="M132 -88L132 -84L128 -84L128 -88L132 -88Z" fill="white" fill-opacity="0.2"/>
<path d="M132 -68L132 -64L128 -64L128 -68L132 -68Z" fill="white" fill-opacity="0.2"/>
<path d="M132 -48L132 -44L128 -44L128 -48L132 -48Z" fill="white" fill-opacity="0.2"/>
<path d="M132 -28L132 -24L128 -24L128 -28L132 -28Z" fill="white" fill-opacity="0.2"/>
<path d="M132 -8.00001L132 -4.00001L128 -4.00001L128 -8.00001L132 -8.00001Z" fill="white" fill-opacity="0.2"/>
<path d="M132 12L132 16L128 16L128 12L132 12Z" fill="white" fill-opacity="0.2"/>
<path d="M132 32L132 36L128 36L128 32L132 32Z" fill="white" fill-opacity="0.2"/>
<path d="M132 52L132 56L128 56L128 52L132 52Z" fill="white" fill-opacity="0.2"/>
<path d="M132 72L132 76L128 76L128 72L132 72Z" fill="white" fill-opacity="0.2"/>
<path d="M132 92L132 96L128 96L128 92L132 92Z" fill="white" fill-opacity="0.2"/>
<path d="M112 -308L112 -304L108 -304L108 -308L112 -308Z" fill="white" fill-opacity="0.2"/>
<path d="M112 -288L112 -284L108 -284L108 -288L112 -288Z" fill="white" fill-opacity="0.2"/>
<path d="M112 -268L112 -264L108 -264L108 -268L112 -268Z" fill="white" fill-opacity="0.2"/>
<path d="M112 -248L112 -244L108 -244L108 -248L112 -248Z" fill="white" fill-opacity="0.2"/>
<path d="M112 -228L112 -224L108 -224L108 -228L112 -228Z" fill="white" fill-opacity="0.2"/>
<path d="M112 -208L112 -204L108 -204L108 -208L112 -208Z" fill="white" fill-opacity="0.2"/>
<path d="M112 -188L112 -184L108 -184L108 -188L112 -188Z" fill="white" fill-opacity="0.2"/>
<path d="M112 -168L112 -164L108 -164L108 -168L112 -168Z" fill="white" fill-opacity="0.2"/>
<path d="M112 -148L112 -144L108 -144L108 -148L112 -148Z" fill="white" fill-opacity="0.2"/>
<path d="M112 -128L112 -124L108 -124L108 -128L112 -128Z" fill="white" fill-opacity="0.2"/>
<path d="M112 -108L112 -104L108 -104L108 -108L112 -108Z" fill="white" fill-opacity="0.2"/>
<path d="M112 -88L112 -84L108 -84L108 -88L112 -88Z" fill="white" fill-opacity="0.2"/>
<path d="M112 -68L112 -64L108 -64L108 -68L112 -68Z" fill="white" fill-opacity="0.2"/>
<path d="M112 -48L112 -44L108 -44L108 -48L112 -48Z" fill="white" fill-opacity="0.2"/>
<path d="M112 -28L112 -24L108 -24L108 -28L112 -28Z" fill="white" fill-opacity="0.2"/>
<path d="M112 -8.00001L112 -4.00001L108 -4.00001L108 -8.00001L112 -8.00001Z" fill="white" fill-opacity="0.2"/>
<path d="M112 12L112 16L108 16L108 12L112 12Z" fill="white" fill-opacity="0.2"/>
<path d="M112 32L112 36L108 36L108 32L112 32Z" fill="white" fill-opacity="0.2"/>
<path d="M112 52L112 56L108 56L108 52L112 52Z" fill="white" fill-opacity="0.2"/>
<path d="M112 72L112 76L108 76L108 72L112 72Z" fill="white" fill-opacity="0.2"/>
<path d="M112 92L112 96L108 96L108 92L112 92Z" fill="white" fill-opacity="0.2"/>
<path d="M92 -308L92 -304L88 -304L88 -308L92 -308Z" fill="white" fill-opacity="0.2"/>
<path d="M92 -288L92 -284L88 -284L88 -288L92 -288Z" fill="white" fill-opacity="0.2"/>
<path d="M92 -268L92 -264L88 -264L88 -268L92 -268Z" fill="white" fill-opacity="0.2"/>
<path d="M92 -248L92 -244L88 -244L88 -248L92 -248Z" fill="white" fill-opacity="0.2"/>
<path d="M92 -228L92 -224L88 -224L88 -228L92 -228Z" fill="white" fill-opacity="0.2"/>
<path d="M92 -208L92 -204L88 -204L88 -208L92 -208Z" fill="white" fill-opacity="0.2"/>
<path d="M92 -188L92 -184L88 -184L88 -188L92 -188Z" fill="white" fill-opacity="0.2"/>
<path d="M92 -168L92 -164L88 -164L88 -168L92 -168Z" fill="white" fill-opacity="0.2"/>
<path d="M92 -148L92 -144L88 -144L88 -148L92 -148Z" fill="white" fill-opacity="0.2"/>
<path d="M92 -128L92 -124L88 -124L88 -128L92 -128Z" fill="white" fill-opacity="0.2"/>
<path d="M92 -108L92 -104L88 -104L88 -108L92 -108Z" fill="white" fill-opacity="0.2"/>
<path d="M92 -88L92 -84L88 -84L88 -88L92 -88Z" fill="white" fill-opacity="0.2"/>
<path d="M92 -68L92 -64L88 -64L88 -68L92 -68Z" fill="white" fill-opacity="0.2"/>
<path d="M92 -48L92 -44L88 -44L88 -48L92 -48Z" fill="white" fill-opacity="0.2"/>
<path d="M92 -28L92 -24L88 -24L88 -28L92 -28Z" fill="white" fill-opacity="0.2"/>
<path d="M92 -8.00001L92 -4.00001L88 -4.00001L88 -8.00001L92 -8.00001Z" fill="white" fill-opacity="0.2"/>
<path d="M92 12L92 16L88 16L88 12L92 12Z" fill="white" fill-opacity="0.2"/>
<path d="M92 32L92 36L88 36L88 32L92 32Z" fill="white" fill-opacity="0.2"/>
<path d="M92 52L92 56L88 56L88 52L92 52Z" fill="white" fill-opacity="0.2"/>
<path d="M92 72L92 76L88 76L88 72L92 72Z" fill="white" fill-opacity="0.2"/>
<path d="M92 92L92 96L88 96L88 92L92 92Z" fill="white" fill-opacity="0.2"/>
<path d="M72 -308L72 -304L68 -304L68 -308L72 -308Z" fill="white" fill-opacity="0.2"/>
<path d="M72 -288L72 -284L68 -284L68 -288L72 -288Z" fill="white" fill-opacity="0.2"/>
<path d="M72 -268L72 -264L68 -264L68 -268L72 -268Z" fill="white" fill-opacity="0.2"/>
<path d="M72 -248L72 -244L68 -244L68 -248L72 -248Z" fill="white" fill-opacity="0.2"/>
<path d="M72 -228L72 -224L68 -224L68 -228L72 -228Z" fill="white" fill-opacity="0.2"/>
<path d="M72 -208L72 -204L68 -204L68 -208L72 -208Z" fill="white" fill-opacity="0.2"/>
<path d="M72 -188L72 -184L68 -184L68 -188L72 -188Z" fill="white" fill-opacity="0.2"/>
<path d="M72 -168L72 -164L68 -164L68 -168L72 -168Z" fill="white" fill-opacity="0.2"/>
<path d="M72 -148L72 -144L68 -144L68 -148L72 -148Z" fill="white" fill-opacity="0.2"/>
<path d="M72 -128L72 -124L68 -124L68 -128L72 -128Z" fill="white" fill-opacity="0.2"/>
<path d="M72 -108L72 -104L68 -104L68 -108L72 -108Z" fill="white" fill-opacity="0.2"/>
<path d="M72 -88L72 -84L68 -84L68 -88L72 -88Z" fill="white" fill-opacity="0.2"/>
<path d="M72 -68L72 -64L68 -64L68 -68L72 -68Z" fill="white" fill-opacity="0.2"/>
<path d="M72 -48L72 -44L68 -44L68 -48L72 -48Z" fill="white" fill-opacity="0.2"/>
<path d="M72 -28L72 -24L68 -24L68 -28L72 -28Z" fill="white" fill-opacity="0.2"/>
<path d="M72 -8.00001L72 -4.00001L68 -4.00001L68 -8.00001L72 -8.00001Z" fill="white" fill-opacity="0.2"/>
<path d="M72 12L72 16L68 16L68 12L72 12Z" fill="white" fill-opacity="0.2"/>
<path d="M72 32L72 36L68 36L68 32L72 32Z" fill="white" fill-opacity="0.2"/>
<path d="M72 52L72 56L68 56L68 52L72 52Z" fill="white" fill-opacity="0.2"/>
<path d="M72 72L72 76L68 76L68 72L72 72Z" fill="white" fill-opacity="0.2"/>
<path d="M72 92L72 96L68 96L68 92L72 92Z" fill="white" fill-opacity="0.2"/>
<path d="M52 -308L52 -304L48 -304L48 -308L52 -308Z" fill="white" fill-opacity="0.2"/>
<path d="M52 -288L52 -284L48 -284L48 -288L52 -288Z" fill="white" fill-opacity="0.2"/>
<path d="M52 -268L52 -264L48 -264L48 -268L52 -268Z" fill="white" fill-opacity="0.2"/>
<path d="M52 -248L52 -244L48 -244L48 -248L52 -248Z" fill="white" fill-opacity="0.2"/>
<path d="M52 -228L52 -224L48 -224L48 -228L52 -228Z" fill="white" fill-opacity="0.2"/>
<path d="M52 -208L52 -204L48 -204L48 -208L52 -208Z" fill="white" fill-opacity="0.2"/>
<path d="M52 -188L52 -184L48 -184L48 -188L52 -188Z" fill="white" fill-opacity="0.2"/>
<path d="M52 -168L52 -164L48 -164L48 -168L52 -168Z" fill="white" fill-opacity="0.2"/>
<path d="M52 -148L52 -144L48 -144L48 -148L52 -148Z" fill="white" fill-opacity="0.2"/>
<path d="M52 -128L52 -124L48 -124L48 -128L52 -128Z" fill="white" fill-opacity="0.2"/>
<path d="M52 -108L52 -104L48 -104L48 -108L52 -108Z" fill="white" fill-opacity="0.2"/>
<path d="M52 -88L52 -84L48 -84L48 -88L52 -88Z" fill="white" fill-opacity="0.2"/>
<path d="M52 -68L52 -64L48 -64L48 -68L52 -68Z" fill="white" fill-opacity="0.2"/>
<path d="M52 -48L52 -44L48 -44L48 -48L52 -48Z" fill="white" fill-opacity="0.2"/>
<path d="M52 -28L52 -24L48 -24L48 -28L52 -28Z" fill="white" fill-opacity="0.2"/>
<path d="M52 -8.00001L52 -4.00001L48 -4.00001L48 -8.00001L52 -8.00001Z" fill="white" fill-opacity="0.2"/>
<path d="M52 12L52 16L48 16L48 12L52 12Z" fill="white" fill-opacity="0.2"/>
<path d="M52 32L52 36L48 36L48 32L52 32Z" fill="white" fill-opacity="0.2"/>
<path d="M52 52L52 56L48 56L48 52L52 52Z" fill="white" fill-opacity="0.2"/>
<path d="M52 72L52 76L48 76L48 72L52 72Z" fill="white" fill-opacity="0.2"/>
<path d="M52 92L52 96L48 96L48 92L52 92Z" fill="white" fill-opacity="0.2"/>
<path d="M32 -308L32 -304L28 -304L28 -308L32 -308Z" fill="white" fill-opacity="0.2"/>
<path d="M32 -288L32 -284L28 -284L28 -288L32 -288Z" fill="white" fill-opacity="0.2"/>
<path d="M32 -268L32 -264L28 -264L28 -268L32 -268Z" fill="white" fill-opacity="0.2"/>
<path d="M32 -248L32 -244L28 -244L28 -248L32 -248Z" fill="white" fill-opacity="0.2"/>
<path d="M32 -228L32 -224L28 -224L28 -228L32 -228Z" fill="white" fill-opacity="0.2"/>
<path d="M32 -208L32 -204L28 -204L28 -208L32 -208Z" fill="white" fill-opacity="0.2"/>
<path d="M32 -188L32 -184L28 -184L28 -188L32 -188Z" fill="white" fill-opacity="0.2"/>
<path d="M32 -168L32 -164L28 -164L28 -168L32 -168Z" fill="white" fill-opacity="0.2"/>
<path d="M32 -148L32 -144L28 -144L28 -148L32 -148Z" fill="white" fill-opacity="0.2"/>
<path d="M32 -128L32 -124L28 -124L28 -128L32 -128Z" fill="white" fill-opacity="0.2"/>
<path d="M32 -108L32 -104L28 -104L28 -108L32 -108Z" fill="white" fill-opacity="0.2"/>
<path d="M32 -88L32 -84L28 -84L28 -88L32 -88Z" fill="white" fill-opacity="0.2"/>
<path d="M32 -68L32 -64L28 -64L28 -68L32 -68Z" fill="white" fill-opacity="0.2"/>
<path d="M32 -48L32 -44L28 -44L28 -48L32 -48Z" fill="white" fill-opacity="0.2"/>
<path d="M32 -28L32 -24L28 -24L28 -28L32 -28Z" fill="white" fill-opacity="0.2"/>
<path d="M32 -8.00001L32 -4.00001L28 -4.00001L28 -8.00001L32 -8.00001Z" fill="white" fill-opacity="0.2"/>
<path d="M32 12L32 16L28 16L28 12L32 12Z" fill="white" fill-opacity="0.2"/>
<path d="M32 32L32 36L28 36L28 32L32 32Z" fill="white" fill-opacity="0.2"/>
<path d="M32 52L32 56L28 56L28 52L32 52Z" fill="white" fill-opacity="0.2"/>
<path d="M32 72L32 76L28 76L28 72L32 72Z" fill="white" fill-opacity="0.2"/>
<path d="M32 92L32 96L28 96L28 92L32 92Z" fill="white" fill-opacity="0.2"/>
<path d="M12 -308L12 -304L8 -304L8 -308L12 -308Z" fill="white" fill-opacity="0.2"/>
<path d="M12 -288L12 -284L8 -284L8 -288L12 -288Z" fill="white" fill-opacity="0.2"/>
<path d="M12 -268L12 -264L8 -264L8 -268L12 -268Z" fill="white" fill-opacity="0.2"/>
<path d="M12 -248L12 -244L8 -244L8 -248L12 -248Z" fill="white" fill-opacity="0.2"/>
<path d="M12 -228L12 -224L8 -224L8 -228L12 -228Z" fill="white" fill-opacity="0.2"/>
<path d="M12 -208L12 -204L8 -204L8 -208L12 -208Z" fill="white" fill-opacity="0.2"/>
<path d="M12 -188L12 -184L7.99999 -184L7.99999 -188L12 -188Z" fill="white" fill-opacity="0.2"/>
<path d="M12 -168L12 -164L7.99999 -164L7.99999 -168L12 -168Z" fill="white" fill-opacity="0.2"/>
<path d="M12 -148L12 -144L7.99999 -144L7.99999 -148L12 -148Z" fill="white" fill-opacity="0.2"/>
<path d="M12 -128L12 -124L7.99999 -124L7.99999 -128L12 -128Z" fill="white" fill-opacity="0.2"/>
<path d="M12 -108L12 -104L7.99999 -104L7.99999 -108L12 -108Z" fill="white" fill-opacity="0.2"/>
<path d="M12 -88L12 -84L7.99999 -84L7.99999 -88L12 -88Z" fill="white" fill-opacity="0.2"/>
<path d="M12 -68L12 -64L7.99999 -64L7.99999 -68L12 -68Z" fill="white" fill-opacity="0.2"/>
<path d="M12 -48L12 -44L7.99999 -44L7.99999 -48L12 -48Z" fill="white" fill-opacity="0.2"/>
<path d="M12 -28L12 -24L7.99999 -24L7.99999 -28L12 -28Z" fill="white" fill-opacity="0.2"/>
<path d="M12 -8.00001L12 -4.00001L7.99999 -4.00001L7.99999 -8.00001L12 -8.00001Z" fill="white" fill-opacity="0.2"/>
<path d="M12 12L12 16L7.99999 16L7.99999 12L12 12Z" fill="white" fill-opacity="0.2"/>
<path d="M12 32L12 36L7.99998 36L7.99999 32L12 32Z" fill="white" fill-opacity="0.2"/>
<path d="M12 52L12 56L7.99998 56L7.99998 52L12 52Z" fill="white" fill-opacity="0.2"/>
<path d="M12 72L12 76L7.99998 76L7.99998 72L12 72Z" fill="white" fill-opacity="0.2"/>
<path d="M12 92L12 96L7.99998 96L7.99998 92L12 92Z" fill="white" fill-opacity="0.2"/>
<path d="M-8 -308L-8 -304L-12 -304L-12 -308L-8 -308Z" fill="white" fill-opacity="0.2"/>
<path d="M-8 -288L-8 -284L-12 -284L-12 -288L-8 -288Z" fill="white" fill-opacity="0.2"/>
<path d="M-8 -268L-8 -264L-12 -264L-12 -268L-8 -268Z" fill="white" fill-opacity="0.2"/>
<path d="M-8 -248L-8 -244L-12 -244L-12 -248L-8 -248Z" fill="white" fill-opacity="0.2"/>
<path d="M-8 -228L-8 -224L-12 -224L-12 -228L-8 -228Z" fill="white" fill-opacity="0.2"/>
<path d="M-8 -208L-8 -204L-12 -204L-12 -208L-8 -208Z" fill="white" fill-opacity="0.2"/>
<path d="M-8.00001 -188L-8.00001 -184L-12 -184L-12 -188L-8.00001 -188Z" fill="white" fill-opacity="0.2"/>
<path d="M-8.00001 -168L-8.00001 -164L-12 -164L-12 -168L-8.00001 -168Z" fill="white" fill-opacity="0.2"/>
<path d="M-8.00001 -148L-8.00001 -144L-12 -144L-12 -148L-8.00001 -148Z" fill="white" fill-opacity="0.2"/>
<path d="M-8.00001 -128L-8.00001 -124L-12 -124L-12 -128L-8.00001 -128Z" fill="white" fill-opacity="0.2"/>
<path d="M-8.00001 -108L-8.00001 -104L-12 -104L-12 -108L-8.00001 -108Z" fill="white" fill-opacity="0.2"/>
<path d="M-8.00001 -88L-8.00001 -84L-12 -84L-12 -88L-8.00001 -88Z" fill="white" fill-opacity="0.2"/>
<path d="M-8.00001 -68L-8.00001 -64L-12 -64L-12 -68L-8.00001 -68Z" fill="white" fill-opacity="0.2"/>
<path d="M-8.00001 -48L-8.00001 -44L-12 -44L-12 -48L-8.00001 -48Z" fill="white" fill-opacity="0.2"/>
<path d="M-8.00001 -28L-8.00001 -24L-12 -24L-12 -28L-8.00001 -28Z" fill="white" fill-opacity="0.2"/>
<path d="M-8.00001 -8.00001L-8.00001 -4.00001L-12 -4.00001L-12 -8.00001L-8.00001 -8.00001Z" fill="white" fill-opacity="0.2"/>
<path d="M-8.00001 12L-8.00001 16L-12 16L-12 12L-8.00001 12Z" fill="white" fill-opacity="0.2"/>
<path d="M-8.00001 32L-8.00002 36L-12 36L-12 32L-8.00001 32Z" fill="white" fill-opacity="0.2"/>
<path d="M-8.00002 52L-8.00002 56L-12 56L-12 52L-8.00002 52Z" fill="white" fill-opacity="0.2"/>
<path d="M-8.00002 72L-8.00002 76L-12 76L-12 72L-8.00002 72Z" fill="white" fill-opacity="0.2"/>
<path d="M-8.00002 92L-8.00002 96L-12 96L-12 92L-8.00002 92Z" fill="white" fill-opacity="0.2"/>
<path d="M-28 -308L-28 -304L-32 -304L-32 -308L-28 -308Z" fill="white" fill-opacity="0.2"/>
<path d="M-28 -288L-28 -284L-32 -284L-32 -288L-28 -288Z" fill="white" fill-opacity="0.2"/>
<path d="M-28 -268L-28 -264L-32 -264L-32 -268L-28 -268Z" fill="white" fill-opacity="0.2"/>
<path d="M-28 -248L-28 -244L-32 -244L-32 -248L-28 -248Z" fill="white" fill-opacity="0.2"/>
<path d="M-28 -228L-28 -224L-32 -224L-32 -228L-28 -228Z" fill="white" fill-opacity="0.2"/>
<path d="M-28 -208L-28 -204L-32 -204L-32 -208L-28 -208Z" fill="white" fill-opacity="0.2"/>
<path d="M-28 -188L-28 -184L-32 -184L-32 -188L-28 -188Z" fill="white" fill-opacity="0.2"/>
<path d="M-28 -168L-28 -164L-32 -164L-32 -168L-28 -168Z" fill="white" fill-opacity="0.2"/>
<path d="M-28 -148L-28 -144L-32 -144L-32 -148L-28 -148Z" fill="white" fill-opacity="0.2"/>
<path d="M-28 -128L-28 -124L-32 -124L-32 -128L-28 -128Z" fill="white" fill-opacity="0.2"/>
<path d="M-28 -108L-28 -104L-32 -104L-32 -108L-28 -108Z" fill="white" fill-opacity="0.2"/>
<path d="M-28 -88L-28 -84L-32 -84L-32 -88L-28 -88Z" fill="white" fill-opacity="0.2"/>
<path d="M-28 -68L-28 -64L-32 -64L-32 -68L-28 -68Z" fill="white" fill-opacity="0.2"/>
<path d="M-28 -48L-28 -44L-32 -44L-32 -48L-28 -48Z" fill="white" fill-opacity="0.2"/>
<path d="M-28 -28L-28 -24L-32 -24L-32 -28L-28 -28Z" fill="white" fill-opacity="0.2"/>
<path d="M-28 -8.00001L-28 -4.00001L-32 -4.00001L-32 -8.00001L-28 -8.00001Z" fill="white" fill-opacity="0.2"/>
<path d="M-28 12L-28 16L-32 16L-32 12L-28 12Z" fill="white" fill-opacity="0.2"/>
<path d="M-28 32L-28 36L-32 36L-32 32L-28 32Z" fill="white" fill-opacity="0.2"/>
<path d="M-28 52L-28 56L-32 56L-32 52L-28 52Z" fill="white" fill-opacity="0.2"/>
<path d="M-28 72L-28 76L-32 76L-32 72L-28 72Z" fill="white" fill-opacity="0.2"/>
<path d="M-28 92L-28 96L-32 96L-32 92L-28 92Z" fill="white" fill-opacity="0.2"/>
<path d="M-48 -308L-48 -304L-52 -304L-52 -308L-48 -308Z" fill="white" fill-opacity="0.2"/>
<path d="M-48 -288L-48 -284L-52 -284L-52 -288L-48 -288Z" fill="white" fill-opacity="0.2"/>
<path d="M-48 -268L-48 -264L-52 -264L-52 -268L-48 -268Z" fill="white" fill-opacity="0.2"/>
<path d="M-48 -248L-48 -244L-52 -244L-52 -248L-48 -248Z" fill="white" fill-opacity="0.2"/>
<path d="M-48 -228L-48 -224L-52 -224L-52 -228L-48 -228Z" fill="white" fill-opacity="0.2"/>
<path d="M-48 -208L-48 -204L-52 -204L-52 -208L-48 -208Z" fill="white" fill-opacity="0.2"/>
<path d="M-48 -188L-48 -184L-52 -184L-52 -188L-48 -188Z" fill="white" fill-opacity="0.2"/>
<path d="M-48 -168L-48 -164L-52 -164L-52 -168L-48 -168Z" fill="white" fill-opacity="0.2"/>
<path d="M-48 -148L-48 -144L-52 -144L-52 -148L-48 -148Z" fill="white" fill-opacity="0.2"/>
<path d="M-48 -128L-48 -124L-52 -124L-52 -128L-48 -128Z" fill="white" fill-opacity="0.2"/>
<path d="M-48 -108L-48 -104L-52 -104L-52 -108L-48 -108Z" fill="white" fill-opacity="0.2"/>
<path d="M-48 -88L-48 -84L-52 -84L-52 -88L-48 -88Z" fill="white" fill-opacity="0.2"/>
<path d="M-48 -68L-48 -64L-52 -64L-52 -68L-48 -68Z" fill="white" fill-opacity="0.2"/>
<path d="M-48 -48L-48 -44L-52 -44L-52 -48L-48 -48Z" fill="white" fill-opacity="0.2"/>
<path d="M-48 -28L-48 -24L-52 -24L-52 -28L-48 -28Z" fill="white" fill-opacity="0.2"/>
<path d="M-48 -8.00001L-48 -4.00001L-52 -4.00001L-52 -8.00001L-48 -8.00001Z" fill="white" fill-opacity="0.2"/>
<path d="M-48 12L-48 16L-52 16L-52 12L-48 12Z" fill="white" fill-opacity="0.2"/>
<path d="M-48 32L-48 36L-52 36L-52 32L-48 32Z" fill="white" fill-opacity="0.2"/>
<path d="M-48 52L-48 56L-52 56L-52 52L-48 52Z" fill="white" fill-opacity="0.2"/>
<path d="M-48 72L-48 76L-52 76L-52 72L-48 72Z" fill="white" fill-opacity="0.2"/>
<path d="M-48 92L-48 96L-52 96L-52 92L-48 92Z" fill="white" fill-opacity="0.2"/>
<path d="M-68 -308L-68 -304L-72 -304L-72 -308L-68 -308Z" fill="white" fill-opacity="0.2"/>
<path d="M-68 -288L-68 -284L-72 -284L-72 -288L-68 -288Z" fill="white" fill-opacity="0.2"/>
<path d="M-68 -268L-68 -264L-72 -264L-72 -268L-68 -268Z" fill="white" fill-opacity="0.2"/>
<path d="M-68 -248L-68 -244L-72 -244L-72 -248L-68 -248Z" fill="white" fill-opacity="0.2"/>
<path d="M-68 -228L-68 -224L-72 -224L-72 -228L-68 -228Z" fill="white" fill-opacity="0.2"/>
<path d="M-68 -208L-68 -204L-72 -204L-72 -208L-68 -208Z" fill="white" fill-opacity="0.2"/>
<path d="M-68 -188L-68 -184L-72 -184L-72 -188L-68 -188Z" fill="white" fill-opacity="0.2"/>
<path d="M-68 -168L-68 -164L-72 -164L-72 -168L-68 -168Z" fill="white" fill-opacity="0.2"/>
<path d="M-68 -148L-68 -144L-72 -144L-72 -148L-68 -148Z" fill="white" fill-opacity="0.2"/>
<path d="M-68 -128L-68 -124L-72 -124L-72 -128L-68 -128Z" fill="white" fill-opacity="0.2"/>
<path d="M-68 -108L-68 -104L-72 -104L-72 -108L-68 -108Z" fill="white" fill-opacity="0.2"/>
<path d="M-68 -88L-68 -84L-72 -84L-72 -88L-68 -88Z" fill="white" fill-opacity="0.2"/>
<path d="M-68 -68L-68 -64L-72 -64L-72 -68L-68 -68Z" fill="white" fill-opacity="0.2"/>
<path d="M-68 -48L-68 -44L-72 -44L-72 -48L-68 -48Z" fill="white" fill-opacity="0.2"/>
<path d="M-68 -28L-68 -24L-72 -24L-72 -28L-68 -28Z" fill="white" fill-opacity="0.2"/>
<path d="M-68 -8.00001L-68 -4.00001L-72 -4.00001L-72 -8.00001L-68 -8.00001Z" fill="white" fill-opacity="0.2"/>
<path d="M-68 12L-68 16L-72 16L-72 12L-68 12Z" fill="white" fill-opacity="0.2"/>
<path d="M-68 32L-68 36L-72 36L-72 32L-68 32Z" fill="white" fill-opacity="0.2"/>
<path d="M-68 52L-68 56L-72 56L-72 52L-68 52Z" fill="white" fill-opacity="0.2"/>
<path d="M-68 72L-68 76L-72 76L-72 72L-68 72Z" fill="white" fill-opacity="0.2"/>
<path d="M-68 92L-68 96L-72 96L-72 92L-68 92Z" fill="white" fill-opacity="0.2"/>
<path d="M-88 -308L-88 -304L-92 -304L-92 -308L-88 -308Z" fill="white" fill-opacity="0.2"/>
<path d="M-88 -288L-88 -284L-92 -284L-92 -288L-88 -288Z" fill="white" fill-opacity="0.2"/>
<path d="M-88 -268L-88 -264L-92 -264L-92 -268L-88 -268Z" fill="white" fill-opacity="0.2"/>
<path d="M-88 -248L-88 -244L-92 -244L-92 -248L-88 -248Z" fill="white" fill-opacity="0.2"/>
<path d="M-88 -228L-88 -224L-92 -224L-92 -228L-88 -228Z" fill="white" fill-opacity="0.2"/>
<path d="M-88 -208L-88 -204L-92 -204L-92 -208L-88 -208Z" fill="white" fill-opacity="0.2"/>
<path d="M-88 -188L-88 -184L-92 -184L-92 -188L-88 -188Z" fill="white" fill-opacity="0.2"/>
<path d="M-88 -168L-88 -164L-92 -164L-92 -168L-88 -168Z" fill="white" fill-opacity="0.2"/>
<path d="M-88 -148L-88 -144L-92 -144L-92 -148L-88 -148Z" fill="white" fill-opacity="0.2"/>
<path d="M-88 -128L-88 -124L-92 -124L-92 -128L-88 -128Z" fill="white" fill-opacity="0.2"/>
<path d="M-88 -108L-88 -104L-92 -104L-92 -108L-88 -108Z" fill="white" fill-opacity="0.2"/>
<path d="M-88 -88L-88 -84L-92 -84L-92 -88L-88 -88Z" fill="white" fill-opacity="0.2"/>
<path d="M-88 -68L-88 -64L-92 -64L-92 -68L-88 -68Z" fill="white" fill-opacity="0.2"/>
<path d="M-88 -48L-88 -44L-92 -44L-92 -48L-88 -48Z" fill="white" fill-opacity="0.2"/>
<path d="M-88 -28L-88 -24L-92 -24L-92 -28L-88 -28Z" fill="white" fill-opacity="0.2"/>
<path d="M-88 -8.00001L-88 -4.00001L-92 -4.00002L-92 -8.00002L-88 -8.00001Z" fill="white" fill-opacity="0.2"/>
<path d="M-88 12L-88 16L-92 16L-92 12L-88 12Z" fill="white" fill-opacity="0.2"/>
<path d="M-88 32L-88 36L-92 36L-92 32L-88 32Z" fill="white" fill-opacity="0.2"/>
<path d="M-88 52L-88 56L-92 56L-92 52L-88 52Z" fill="white" fill-opacity="0.2"/>
<path d="M-88 72L-88 76L-92 76L-92 72L-88 72Z" fill="white" fill-opacity="0.2"/>
<path d="M-88 92L-88 96L-92 96L-92 92L-88 92Z" fill="white" fill-opacity="0.2"/>
<path d="M-108 -308L-108 -304L-112 -304L-112 -308L-108 -308Z" fill="white" fill-opacity="0.2"/>
<path d="M-108 -288L-108 -284L-112 -284L-112 -288L-108 -288Z" fill="white" fill-opacity="0.2"/>
<path d="M-108 -268L-108 -264L-112 -264L-112 -268L-108 -268Z" fill="white" fill-opacity="0.2"/>
<path d="M-108 -248L-108 -244L-112 -244L-112 -248L-108 -248Z" fill="white" fill-opacity="0.2"/>
<path d="M-108 -228L-108 -224L-112 -224L-112 -228L-108 -228Z" fill="white" fill-opacity="0.2"/>
<path d="M-108 -208L-108 -204L-112 -204L-112 -208L-108 -208Z" fill="white" fill-opacity="0.2"/>
<path d="M-108 -188L-108 -184L-112 -184L-112 -188L-108 -188Z" fill="white" fill-opacity="0.2"/>
<path d="M-108 -168L-108 -164L-112 -164L-112 -168L-108 -168Z" fill="white" fill-opacity="0.2"/>
<path d="M-108 -148L-108 -144L-112 -144L-112 -148L-108 -148Z" fill="white" fill-opacity="0.2"/>
<path d="M-108 -128L-108 -124L-112 -124L-112 -128L-108 -128Z" fill="white" fill-opacity="0.2"/>
<path d="M-108 -108L-108 -104L-112 -104L-112 -108L-108 -108Z" fill="white" fill-opacity="0.2"/>
<path d="M-108 -88L-108 -84L-112 -84L-112 -88L-108 -88Z" fill="white" fill-opacity="0.2"/>
<path d="M-108 -68L-108 -64L-112 -64L-112 -68L-108 -68Z" fill="white" fill-opacity="0.2"/>
<path d="M-108 -48L-108 -44L-112 -44L-112 -48L-108 -48Z" fill="white" fill-opacity="0.2"/>
<path d="M-108 -28L-108 -24L-112 -24L-112 -28L-108 -28Z" fill="white" fill-opacity="0.2"/>
<path d="M-108 -8.00002L-108 -4.00002L-112 -4.00002L-112 -8.00002L-108 -8.00002Z" fill="white" fill-opacity="0.2"/>
<path d="M-108 12L-108 16L-112 16L-112 12L-108 12Z" fill="white" fill-opacity="0.2"/>
<path d="M-108 32L-108 36L-112 36L-112 32L-108 32Z" fill="white" fill-opacity="0.2"/>
<path d="M-108 52L-108 56L-112 56L-112 52L-108 52Z" fill="white" fill-opacity="0.2"/>
<path d="M-108 72L-108 76L-112 76L-112 72L-108 72Z" fill="white" fill-opacity="0.2"/>
<path d="M-108 92L-108 96L-112 96L-112 92L-108 92Z" fill="white" fill-opacity="0.2"/>
<path d="M-128 -308L-128 -304L-132 -304L-132 -308L-128 -308Z" fill="white" fill-opacity="0.2"/>
<path d="M-128 -288L-128 -284L-132 -284L-132 -288L-128 -288Z" fill="white" fill-opacity="0.2"/>
<path d="M-128 -268L-128 -264L-132 -264L-132 -268L-128 -268Z" fill="white" fill-opacity="0.2"/>
<path d="M-128 -248L-128 -244L-132 -244L-132 -248L-128 -248Z" fill="white" fill-opacity="0.2"/>
<path d="M-128 -228L-128 -224L-132 -224L-132 -228L-128 -228Z" fill="white" fill-opacity="0.2"/>
<path d="M-128 -208L-128 -204L-132 -204L-132 -208L-128 -208Z" fill="white" fill-opacity="0.2"/>
<path d="M-128 -188L-128 -184L-132 -184L-132 -188L-128 -188Z" fill="white" fill-opacity="0.2"/>
<path d="M-128 -168L-128 -164L-132 -164L-132 -168L-128 -168Z" fill="white" fill-opacity="0.2"/>
<path d="M-128 -148L-128 -144L-132 -144L-132 -148L-128 -148Z" fill="white" fill-opacity="0.2"/>
<path d="M-128 -128L-128 -124L-132 -124L-132 -128L-128 -128Z" fill="white" fill-opacity="0.2"/>
<path d="M-128 -108L-128 -104L-132 -104L-132 -108L-128 -108Z" fill="white" fill-opacity="0.2"/>
<path d="M-128 -88L-128 -84L-132 -84L-132 -88L-128 -88Z" fill="white" fill-opacity="0.2"/>
<path d="M-128 -68L-128 -64L-132 -64L-132 -68L-128 -68Z" fill="white" fill-opacity="0.2"/>
<path d="M-128 -48L-128 -44L-132 -44L-132 -48L-128 -48Z" fill="white" fill-opacity="0.2"/>
<path d="M-128 -28L-128 -24L-132 -24L-132 -28L-128 -28Z" fill="white" fill-opacity="0.2"/>
<path d="M-128 -8.00002L-128 -4.00002L-132 -4.00002L-132 -8.00002L-128 -8.00002Z" fill="white" fill-opacity="0.2"/>
<path d="M-128 12L-128 16L-132 16L-132 12L-128 12Z" fill="white" fill-opacity="0.2"/>
<path d="M-128 32L-128 36L-132 36L-132 32L-128 32Z" fill="white" fill-opacity="0.2"/>
<path d="M-128 52L-128 56L-132 56L-132 52L-128 52Z" fill="white" fill-opacity="0.2"/>
<path d="M-128 72L-128 76L-132 76L-132 72L-128 72Z" fill="white" fill-opacity="0.2"/>
<path d="M-128 92L-128 96L-132 96L-132 92L-128 92Z" fill="white" fill-opacity="0.2"/>
<path d="M-148 -308L-148 -304L-152 -304L-152 -308L-148 -308Z" fill="white" fill-opacity="0.2"/>
<path d="M-148 -288L-148 -284L-152 -284L-152 -288L-148 -288Z" fill="white" fill-opacity="0.2"/>
<path d="M-148 -268L-148 -264L-152 -264L-152 -268L-148 -268Z" fill="white" fill-opacity="0.2"/>
<path d="M-148 -248L-148 -244L-152 -244L-152 -248L-148 -248Z" fill="white" fill-opacity="0.2"/>
<path d="M-148 -228L-148 -224L-152 -224L-152 -228L-148 -228Z" fill="white" fill-opacity="0.2"/>
<path d="M-148 -208L-148 -204L-152 -204L-152 -208L-148 -208Z" fill="white" fill-opacity="0.2"/>
<path d="M-148 -188L-148 -184L-152 -184L-152 -188L-148 -188Z" fill="white" fill-opacity="0.2"/>
<path d="M-148 -168L-148 -164L-152 -164L-152 -168L-148 -168Z" fill="white" fill-opacity="0.2"/>
<path d="M-148 -148L-148 -144L-152 -144L-152 -148L-148 -148Z" fill="white" fill-opacity="0.2"/>
<path d="M-148 -128L-148 -124L-152 -124L-152 -128L-148 -128Z" fill="white" fill-opacity="0.2"/>
<path d="M-148 -108L-148 -104L-152 -104L-152 -108L-148 -108Z" fill="white" fill-opacity="0.2"/>
<path d="M-148 -88L-148 -84L-152 -84L-152 -88L-148 -88Z" fill="white" fill-opacity="0.2"/>
<path d="M-148 -68L-148 -64L-152 -64L-152 -68L-148 -68Z" fill="white" fill-opacity="0.2"/>
<path d="M-148 -48L-148 -44L-152 -44L-152 -48L-148 -48Z" fill="white" fill-opacity="0.2"/>
<path d="M-148 -28L-148 -24L-152 -24L-152 -28L-148 -28Z" fill="white" fill-opacity="0.2"/>
<path d="M-148 -8.00002L-148 -4.00002L-152 -4.00002L-152 -8.00002L-148 -8.00002Z" fill="white" fill-opacity="0.2"/>
<path d="M-148 12L-148 16L-152 16L-152 12L-148 12Z" fill="white" fill-opacity="0.2"/>
<path d="M-148 32L-148 36L-152 36L-152 32L-148 32Z" fill="white" fill-opacity="0.2"/>
<path d="M-148 52L-148 56L-152 56L-152 52L-148 52Z" fill="white" fill-opacity="0.2"/>
<path d="M-148 72L-148 76L-152 76L-152 72L-148 72Z" fill="white" fill-opacity="0.2"/>
<path d="M-148 92L-148 96L-152 96L-152 92L-148 92Z" fill="white" fill-opacity="0.2"/>
</g>
<defs>
<clipPath id="clip0_168_12528">
<rect width="404" height="784" fill="white" transform="translate(252 -308) rotate(90)"/>
</clipPath>
</defs>
</svg>
