<svg width="24" height="24" viewBox="0 0 24 24" fill="none" xmlns="http://www.w3.org/2000/svg">
<path fill-rule="evenodd" clip-rule="evenodd" d="M18.338 18.338H15.67V14.16C15.67 13.165 15.653 11.883 14.283 11.883C12.893 11.883 12.682 12.969 12.682 14.09V18.338H10.014V9.748H12.573V10.922H12.61C12.966 10.247 13.837 9.535 15.136 9.535C17.839 9.535 18.339 11.313 18.339 13.627V18.338H18.338ZM7.005 8.575C6.80171 8.5752 6.60038 8.53535 6.41249 8.45774C6.2246 8.38013 6.05384 8.26627 5.90996 8.12266C5.76607 7.97906 5.65188 7.80852 5.57391 7.62078C5.49593 7.43304 5.4557 7.23179 5.4555 7.0285C5.4553 6.82521 5.49515 6.62388 5.57276 6.43599C5.65037 6.2481 5.76423 6.07734 5.90784 5.93346C6.05144 5.78957 6.22198 5.67538 6.40972 5.59741C6.59746 5.51943 6.79871 5.4792 7.002 5.479C7.41255 5.4786 7.80645 5.64131 8.09704 5.93134C8.38763 6.22136 8.5511 6.61494 8.5515 7.0255C8.5519 7.43605 8.38919 7.82995 8.09916 8.12054C7.80914 8.41113 7.41556 8.5746 7.005 8.575ZM5.668 18.338H8.34V9.748H5.667V18.338H5.668ZM19.668 3H4.328C3.595 3 3 3.581 3 4.298V19.701C3 20.418 3.595 21 4.328 21H19.668C20.402 21 21 20.418 21 19.701V4.298C21 3.581 20.402 3 19.668 3Z" fill="white"/>
</svg>
